<?xml version="1.0" encoding="UTF-8"?>
<svg xmlns="http://www.w3.org/2000/svg" viewBox="0 0 384 384" role="img" aria-label="Thronwick mark">
  
  <path fill="#35205f" fill-rule="evenodd" d="M225.68,40.00L227.00,39.60 229.00,41.36 240.97,53.00 245.28,56.00 248.81,60.00 263.00,72.25 274.61,83.00 278.00,85.43 286.69,94.00 286.71,98.00 285.00,101.75 282.73,110.00 280.00,117.62 279.63,120.00 277.96,124.00 275.60,135.00 274.90,136.00 271.00,148.55 271.00,150.90 272.00,152.08 278.00,155.31 279.97,157.00 283.00,158.39 296.00,166.70 301.91,172.00 301.67,174.00 302.00,176.38 305.67,184.00 306.00,185.83 308.71,190.00 310.00,195.19 311.58,198.00 312.00,200.08 313.53,203.00 313.98,205.00 315.74,208.00 316.58,211.00 312.00,216.34 308.00,219.59 306.91,220.00 292.79,233.00 265.79,260.00 248.00,278.89 242.00,283.97 241.60,285.00 237.84,289.00 234.92,291.00 229.85,297.00 192.00,334.66 190.98,336.00 189.50,340.00 189.00,340.46 185.00,340.87 184.00,341.91 183.00,342.25 182.14,341.00 182.53,339.00 182.17,337.00 177.59,333.00 174.00,328.76 171.00,326.78 167.37,323.00 161.00,317.62 158.87,315.00 148.11,306.00 145.46,303.00 143.00,301.45 142.05,300.00 140.00,298.64 133.00,291.93 132.00,291.52 130.90,290.00 128.00,287.81 121.04,281.00 119.00,279.72 114.00,274.85 111.00,272.75 102.28,265.00 100.00,263.66 92.00,255.80 88.00,253.13 87.00,251.91 71.00,238.73 70.00,237.99 68.00,237.48 66.53,234.00 67.36,230.00 68.04,229.00 68.48,224.00 69.09,223.00 69.39,220.00 71.00,215.02 71.32,212.00 74.00,201.79 74.59,198.00 75.14,197.00 76.38,190.00 78.00,184.64 78.32,181.00 79.04,179.00 79.28,174.00 80.18,172.00 83.00,160.48 84.42,150.00 85.40,146.00 86.00,145.15 86.43,140.00 87.03,139.00 88.27,124.00 89.34,121.00 98.00,111.25 98.48,110.00 102.00,106.26 103.39,104.00 111.00,95.29 111.70,94.00 124.27,80.00 133.00,71.10 136.00,67.01 141.00,61.99 146.00,55.47 145.77,53.00 148.00,51.30 153.00,49.50 154.00,49.83 156.00,49.33 163.00,49.02 165.00,48.29 182.79,46.00 184.00,45.29 188.00,45.02 189.00,44.43 194.03,44.00 196.00,43.34 201.76,43.00 203.00,42.32 207.99,42.00 209.00,41.43 219.00,40.27ZM274.00,159.81L273.13,160.00 274.00,162.62 276.55,166.00 277.00,167.43 278.72,170.00 279.00,171.39 280.81,173.00 284.51,173.00 286.00,172.29 289.17,172.00 291.17,171.00 289.46,169.00 280.00,163.59 278.00,161.85ZM295.00,175.80L294.23,176.00 293.74,177.00 294.00,179.43 295.32,182.00 297.00,187.34 298.00,189.06 300.66,189.00 301.19,187.00 299.37,183.00 299.00,180.84 297.00,176.67 296.00,175.80ZM94.00,134.40L93.00,135.84 92.53,139.00 92.00,139.81 89.51,156.00 88.01,160.00 87.77,163.00 86.00,170.17 85.71,174.00 84.46,180.00 83.60,184.00 83.00,185.02 81.70,192.00 80.88,194.00 80.72,197.00 79.96,199.00 79.47,205.00 78.81,207.00 78.60,210.00 77.74,212.00 76.72,222.00 74.87,228.00 74.41,233.00 76.89,236.00 84.19,242.00 85.78,244.00 88.00,245.34 93.00,250.01 97.00,252.56 106.00,261.15 112.00,265.99 116.00,271.06 125.00,278.40 133.98,287.00 141.00,292.43 149.99,301.00 154.00,303.34 168.00,316.01 173.74,320.00 174.51,320.00 174.11,318.00 169.52,309.00 167.16,302.00 163.42,294.00 162.16,290.00 161.38,289.00 160.25,285.00 156.23,275.00 156.00,273.01 154.40,270.00 153.02,265.00 152.28,264.00 152.02,262.00 148.87,259.00 148.00,253.23 145.24,247.00 142.22,242.00 140.14,236.00 138.38,233.00 133.00,220.49 131.56,218.00 131.00,214.65 128.26,210.00 127.07,206.00 126.00,204.82 125.00,204.54 118.00,204.58 116.60,203.00 116.46,202.00 118.00,200.48 122.00,199.25 123.00,198.21 122.12,194.00 118.29,187.00 116.00,180.69 113.47,176.00 109.00,164.99 105.37,158.00 105.00,156.48 103.39,154.00 102.00,149.44 100.43,147.00 100.00,145.10 95.00,135.13ZM199.00,48.97L197.00,49.69 190.00,49.89 188.00,50.40 180.00,51.01 179.00,51.58 175.00,51.90 173.00,52.64 167.67,53.00 166.00,53.59 158.37,54.00 155.00,54.80 153.00,55.83 150.72,59.00 129.00,83.81 128.47,85.00 124.00,89.92 123.66,91.00 110.00,106.83 105.48,113.00 100.00,118.76 99.55,120.00 97.95,122.00 97.98,128.00 100.62,134.00 102.00,139.00 103.32,141.00 105.87,147.00 109.25,152.00 110.00,153.99 112.00,156.29 115.34,159.00 117.81,162.00 119.00,162.49 131.88,173.00 146.00,183.22 147.00,183.10 148.07,182.00 148.56,180.00 152.00,173.19 152.47,171.00 154.03,169.00 155.37,165.00 157.05,162.00 158.29,158.00 162.00,150.01 162.27,148.00 161.87,147.00 158.00,144.75 152.15,139.00 150.55,137.00 147.46,131.00 146.37,126.00 146.19,120.00 146.42,117.00 148.24,110.00 151.28,104.00 154.00,101.12 159.00,97.28 162.00,95.42 165.00,94.25 171.00,93.20 176.00,93.47 179.00,94.54 181.40,96.00 183.00,96.29 184.00,97.02 185.01,97.00 188.00,91.68 188.36,90.00 190.00,86.75 190.60,84.00 192.00,82.00 193.29,78.00 195.00,74.87 195.39,73.00 198.00,68.66 198.33,67.00 199.00,66.19 202.87,56.00 202.39,50.00 200.87,49.00ZM205.00,63.52L204.00,64.01 201.00,69.10 200.64,71.00 198.00,76.65 197.48,79.00 192.00,90.23 191.00,92.49 190.52,95.00 188.91,98.00 189.00,99.41 194.68,106.00 196.58,109.00 198.78,116.00 199.13,120.00 198.72,126.00 196.46,134.00 194.62,137.00 191.76,140.00 188.00,143.52 185.00,145.54 181.00,147.58 175.00,148.67 168.00,148.82 167.00,150.10 163.54,159.00 161.95,161.00 159.98,165.00 159.60,167.00 158.76,168.00 153.00,179.84 151.19,186.00 151.93,188.00 154.00,190.13 156.23,192.00 158.25,193.00 161.02,193.00 170.00,188.62 175.00,187.05 176.00,186.36 178.00,186.02 181.00,184.42 186.41,183.00 197.00,178.38 199.00,178.16 200.00,177.46 207.72,175.00 212.20,173.00 215.31,162.00 216.05,161.00 217.42,155.00 219.00,152.11 219.28,150.00 220.07,149.00 220.37,146.00 222.00,141.22 222.27,139.00 220.02,127.00 219.38,126.00 219.00,122.37 218.39,121.00 218.04,116.00 217.52,115.00 217.00,111.10 216.39,110.00 214.00,98.51 209.39,82.00 209.00,78.29 208.38,77.00 208.00,73.98 207.40,73.00 206.00,65.17ZM221.00,45.90L213.00,46.99 211.00,48.85 209.66,54.00 210.00,56.79 211.00,59.33 212.73,62.00 214.00,66.14 230.00,92.29 231.00,92.77 233.00,91.29 237.00,89.37 240.00,89.05 247.00,89.29 252.00,92.42 256.73,98.00 258.51,101.00 259.61,104.00 260.73,113.00 260.53,115.00 259.94,116.00 259.80,119.00 259.00,120.69 258.62,123.00 257.62,125.00 255.00,128.40 254.38,131.00 255.99,134.00 258.47,137.00 261.00,142.11 265.00,147.45 266.00,146.44 266.25,144.00 268.00,139.26 269.46,133.00 270.00,132.46 272.00,126.48 272.41,124.00 273.00,123.15 276.25,111.00 279.00,102.77 279.45,100.00 281.00,96.45 281.00,94.79 264.00,79.99 261.00,77.87 257.00,73.97 255.00,72.69 235.13,54.00 231.00,51.44 226.00,46.69 224.00,45.90ZM281.00,177.82L279.69,179.00 279.89,182.00 280.57,184.00 281.00,190.35 282.00,192.36 286.87,192.00 288.00,191.40 290.68,191.00 292.00,190.07 292.07,188.00 291.41,187.00 291.00,184.67 290.42,184.00 290.00,180.13 289.00,177.72 288.00,177.25ZM301.00,194.00L299.76,195.00 300.00,197.23 302.00,202.38 303.52,205.00 304.00,206.90 306.00,208.01 309.00,207.10 309.00,205.98 305.00,196.21 303.00,193.82ZM115.00,166.79L115.82,170.00 117.79,174.00 118.00,175.42 121.63,182.00 122.00,184.12 122.73,185.00 124.99,191.00 128.00,197.11 130.03,198.00 132.00,198.18 136.00,197.25 140.05,197.00 141.04,196.00 142.31,193.00 144.00,190.49 144.00,187.32 141.00,184.61 139.00,183.66 133.00,178.86 131.00,178.17 130.00,176.96 122.00,171.63 116.39,167.00ZM149.00,191.89L148.00,193.02 147.30,195.00 148.00,195.56 152.18,195.00 152.75,194.00 152.01,193.00ZM163.00,101.90L160.00,102.89 159.00,103.74 155.00,107.97 153.00,111.46 152.69,114.00 151.86,116.00 152.00,124.23 156.00,134.20 161.89,140.00 164.00,141.06 166.00,141.27 168.00,139.46 169.16,137.00 169.46,134.00 174.66,123.00 175.00,122.66 176.00,122.77 175.46,126.00 173.72,130.00 172.47,137.00 170.46,140.00 169.93,142.00 174.00,142.06 176.42,141.00 181.00,138.04 184.00,134.01 186.13,128.00 186.00,119.41 183.00,111.90 182.00,111.47 180.52,115.00 179.00,115.98 178.40,115.00 178.47,114.00 179.26,113.00 180.42,109.00 180.00,107.63 177.00,104.95 175.68,104.00 169.04,102.00ZM178.00,99.91L178.17,100.00ZM180.00,100.58L179.46,101.00 182.00,103.18 182.66,103.00 182.98,102.00ZM185.00,102.88L182.96,104.00 185.79,107.00 187.66,110.00 189.62,115.00 190.72,120.00 190.70,127.00 188.87,132.00 188.64,134.00 189.00,134.40 191.00,133.11 192.02,131.00 192.57,124.00 193.09,122.00 193.11,118.00 192.00,112.36 190.00,107.30 188.00,104.84ZM159.00,198.82L151.00,199.91 150.00,200.62 147.00,200.98 146.25,202.00 146.91,207.00 147.55,208.00 148.00,210.90 149.72,215.00 150.00,217.19 152.00,220.90 160.00,219.42 166.22,219.00 167.99,218.00 167.00,212.53 166.31,211.00 165.00,204.67 164.42,204.00 164.00,201.28 162.00,198.78ZM178.00,194.97L168.91,197.00 169.00,200.81 171.53,210.00 172.00,213.33 172.54,214.00 173.00,216.41 174.00,217.13 177.00,217.02 178.00,216.29 182.00,216.00 183.00,215.36 186.62,215.00 189.62,214.00 190.00,213.39 190.00,210.45 189.31,209.00 189.10,206.00 188.32,204.00 188.00,201.13 187.32,200.00 187.00,196.75 186.00,195.23 185.00,194.82ZM214.00,73.92L213.87,75.00 214.54,76.00 215.00,81.03 216.58,86.00 218.66,96.00 219.00,101.30 220.38,107.00 220.89,113.00 222.64,117.00 223.93,123.00 228.00,132.39 232.34,140.00 234.00,143.87 236.51,147.00 237.00,148.62 241.64,156.00 241.83,157.00 243.61,159.00 244.69,161.00 247.91,169.00 249.13,170.00 256.00,171.15 265.00,171.47 267.00,172.06 273.00,172.02 273.00,170.63 269.24,165.00 267.00,160.46 261.67,152.00 261.00,150.13 256.46,144.00 254.00,138.99 250.00,132.73 242.00,132.78 239.00,131.78 234.00,128.69 231.39,126.00 229.31,123.00 228.33,121.00 228.00,119.01 227.26,118.00 226.23,113.00 226.18,104.00 228.00,98.40 228.05,96.00 225.83,94.00 223.36,90.00 223.14,89.00 220.87,86.00 219.00,81.88 216.54,78.00 215.00,74.25ZM236.00,97.90L234.83,99.00 234.68,100.00 235.57,103.00 238.48,107.00 239.00,108.70 242.63,115.00 242.60,116.00 242.00,116.51 240.43,115.00 240.00,113.33 238.52,112.00 237.06,109.00 234.83,106.00 234.22,104.00 233.00,103.32 231.87,105.00 231.54,111.00 231.96,116.00 235.89,123.00 238.77,126.00 240.00,126.21 241.00,127.08 244.00,127.14 246.12,125.00 246.17,124.00 245.46,123.00 245.75,122.00 248.00,122.22 249.00,118.76 249.07,112.00 248.00,106.73 247.00,103.93 243.13,99.00 241.00,97.83 239.00,97.34ZM252.00,101.62L251.61,102.00 252.00,102.90 252.31,102.00ZM254.00,106.15L253.58,107.00 254.00,107.55ZM290.00,196.94L289.00,197.53 284.94,198.00 282.67,199.00 284.00,207.99 284.74,209.00 285.00,210.32 286.00,211.49 287.00,211.70 299.00,209.22 299.43,207.00 299.00,204.69 296.00,196.89 294.00,196.40ZM300.00,215.80L298.00,216.69 292.14,218.00 291.00,218.67 288.17,219.00 281.00,221.53 277.82,222.00 274.00,223.44 266.99,225.00 266.00,225.68 257.69,228.00 257.00,228.52 254.00,228.89 250.25,230.00 247.00,231.48 240.23,233.00 235.00,234.71 232.56,235.00 227.00,236.97 226.00,237.90 224.00,242.13 223.57,244.00 223.00,244.57 222.61,247.00 221.00,250.13 217.72,259.00 216.95,260.00 215.41,265.00 213.00,269.71 212.57,272.00 209.00,280.59 208.58,283.00 206.75,288.00 203.00,295.70 201.66,300.00 201.00,300.88 200.47,304.00 198.00,310.10 196.62,316.00 193.90,322.00 193.63,324.00 194.00,324.38 196.23,323.00 200.42,318.00 227.90,290.00 231.36,287.00 256.00,262.37 262.22,257.00 272.59,247.00 301.00,218.07 302.10,216.00ZM132.00,202.94L130.98,204.00 132.00,207.37 134.57,212.00 143.00,232.32 144.53,235.00 146.82,241.00 147.63,242.00 148.00,243.79 149.85,247.00 151.96,253.00 153.00,253.87 154.14,254.00 155.23,253.00 155.00,249.37 152.31,242.00 151.00,236.62 149.40,233.00 147.00,223.79 145.56,221.00 144.00,214.84 142.29,211.00 141.00,205.79 140.00,203.58 138.00,202.01ZM166.00,224.82L164.00,225.69 156.96,227.00 155.00,227.72 153.98,229.00 156.00,236.75 157.68,241.00 158.00,243.40 159.40,246.00 160.00,249.08 161.00,251.03 162.00,251.14 166.00,250.10 167.00,249.43 173.07,248.00 175.00,246.90 175.00,244.69 174.25,243.00 173.00,235.60 170.37,227.00 170.12,225.00 169.00,224.58ZM187.00,219.80L185.00,220.61 177.33,222.00 175.00,223.38 175.00,224.72 176.54,228.00 178.00,235.48 179.70,239.00 180.00,241.36 181.00,243.72 182.00,244.68 186.28,244.00 187.00,243.40 189.47,243.00 190.00,242.47 192.83,242.00 194.24,241.00 194.00,233.51 193.28,231.00 193.00,226.97 191.08,220.00 190.00,219.13ZM225.00,151.70L224.00,153.00 223.70,156.00 222.84,158.00 221.00,165.60 220.60,171.00 221.00,171.33 223.52,171.00 228.52,169.00 228.39,165.00 226.49,159.00 226.10,155.00ZM228.00,144.88L227.01,146.00 228.58,150.00 230.00,158.96 230.64,160.00 230.79,165.00 232.00,167.59 233.00,168.60 237.00,168.42 241.06,169.00 242.12,168.00 241.00,165.56 230.00,147.23ZM268.00,179.86L257.00,181.98 255.93,183.00 257.82,192.00 258.41,193.00 258.77,197.00 260.00,197.83 265.00,197.00 266.00,196.28 269.00,196.11 271.00,195.29 274.00,195.06 275.24,194.00 275.07,190.00 274.31,188.00 274.00,183.55 273.00,180.01 272.00,179.57ZM254.00,108.85L254.00,110.95ZM228.00,173.81L221.54,176.00 215.00,179.32 211.25,180.00 208.00,181.48 202.23,183.00 195.44,186.00 193.00,187.51 190.00,187.96 190.00,188.33 191.00,189.02 193.00,188.31 198.00,188.00 199.00,187.45 203.00,187.09 207.00,186.09 208.00,185.32 211.00,185.17 218.00,183.77 225.33,183.00 227.00,182.29 230.69,182.00 231.36,181.00 231.24,179.00 230.34,177.00 230.11,174.00ZM233.00,172.93L233.99,177.00 234.00,179.11 235.00,180.66 241.64,180.00 246.00,178.52 252.00,178.06 253.00,177.48 256.02,177.00 252.00,176.01 250.00,176.53 241.00,175.73 237.00,174.55 234.00,172.58ZM273.00,199.93L261.00,202.87 260.00,203.91 261.00,209.17 261.57,210.00 261.84,213.00 262.46,214.00 263.00,216.62 264.01,218.00 266.00,218.09 270.00,216.37 278.25,214.00 278.62,212.00 278.16,205.00 277.15,201.00 276.00,199.79ZM254.00,111.04L254.00,113.42ZM198.00,191.95L192.17,193.00 191.81,194.00 192.00,196.03 192.54,197.00 193.00,204.00 193.66,205.00 195.00,211.16 196.00,212.26 199.00,212.13 201.00,211.38 209.02,210.00 210.23,209.00 210.05,205.00 209.42,204.00 209.00,200.79 208.43,200.00 208.04,196.00 207.38,195.00 207.00,191.90 204.00,191.30ZM218.00,188.90L214.00,189.76 212.87,191.00 212.92,192.00 213.62,193.00 213.86,198.00 214.63,200.00 214.82,203.00 215.67,205.00 216.00,207.41 216.59,208.00 218.00,208.09 219.00,207.47 222.00,207.06 223.00,206.34 228.56,205.00 229.19,204.00 229.00,200.02 228.38,199.00 228.06,196.00 227.42,195.00 227.00,191.43 226.00,188.77 224.00,188.40ZM245.00,183.89L241.00,185.55 237.37,186.00 236.00,186.60 232.00,186.83 231.00,187.76 231.00,190.03 235.00,203.17 239.37,203.00 240.00,202.46 244.00,201.38 252.23,200.00 253.36,199.00 253.08,194.00 252.48,193.00 252.00,189.40 251.31,188.00 251.00,184.62 250.00,183.74ZM254.00,116.95L254.00,117.03ZM206.00,214.97L205.00,215.52 198.00,216.82 197.25,218.00 198.00,224.12 199.52,228.00 201.00,234.64 202.00,237.24 205.99,237.00 207.00,236.29 214.83,234.00 215.38,233.00 215.00,228.13 214.43,227.00 214.00,223.21 213.37,222.00 213.00,219.13 212.34,218.00 212.00,215.32 211.00,214.58ZM217.00,239.94L215.00,240.67 212.13,241.00 206.00,243.57 196.91,246.00 194.00,247.48 187.40,249.00 184.00,250.68 182.38,251.00 180.00,252.67 176.00,252.89 173.00,254.30 165.62,256.00 165.00,256.58 162.95,257.00 161.00,260.38 160.00,260.38 159.00,258.74 158.00,257.99 156.21,258.00 155.40,259.00 157.00,264.70 159.68,270.00 160.00,272.01 166.47,286.00 167.00,288.11 169.58,293.00 171.00,298.19 174.63,305.00 175.00,306.90 177.72,312.00 178.00,313.75 181.00,320.45 184.00,326.06 185.00,327.11 186.00,326.70 187.00,324.59 187.54,322.00 190.00,316.99 191.34,312.00 193.05,309.00 194.31,305.00 196.06,302.00 196.30,300.00 199.00,293.77 199.33,292.00 209.00,269.75 211.52,261.00 214.00,255.44 216.49,247.00 218.05,244.00 218.39,241.00 218.01,240.00ZM229.00,209.92L227.00,210.73 220.00,211.89 217.30,213.00 217.88,218.00 218.67,220.00 219.92,227.00 220.58,228.00 220.94,230.00 222.00,230.70 226.68,230.00 234.45,227.00 234.00,222.17 233.37,221.00 231.13,211.00 230.00,209.99ZM249.00,205.99L248.00,206.55 244.00,206.99 243.00,207.68 239.24,208.00 236.47,209.00 236.99,214.00 237.70,215.00 240.00,222.49 241.00,224.54 242.00,224.99 246.00,223.43 252.00,222.04 253.00,221.39 255.69,221.00 257.87,220.00 257.00,213.49 255.37,208.00 255.24,206.00 253.00,205.34ZM177.31,118.00L178.00,117.27 178.69,118.00 178.00,119.57 177.00,119.59 176.59,119.00Z"/>
</svg>
