<?xml version="1.0" encoding="UTF-8"?>
<svg xmlns="http://www.w3.org/2000/svg" viewBox="0 0 384 384" role="img" aria-label="Thronwick mark">
  
  <path fill="#35205f" fill-rule="evenodd" d="M202.75,40.00L204.00,40.05 205.79,42.00 206.55,44.00 207.00,48.37 208.00,50.88 209.00,51.83 212.00,50.77 214.00,51.23 214.31,49.00 216.00,47.04 217.00,46.23 220.00,46.25 223.00,50.56 226.00,53.24 228.10,54.00 233.00,54.46 233.54,55.00 240.00,56.43 240.63,57.00 242.00,57.26 242.78,58.00 242.97,59.00 242.00,59.82 240.23,60.00 245.00,63.67 246.00,65.68 247.48,67.00 250.71,72.00 253.51,80.00 254.00,83.18 255.00,84.13 266.00,90.25 272.64,95.00 277.00,95.31 277.69,96.00 277.72,97.00 277.01,98.00 278.00,98.59 280.00,98.42 283.57,102.00 282.44,106.00 279.00,109.82 278.75,111.00 274.00,120.34 272.00,126.45 271.63,129.00 270.93,130.00 271.00,134.66 275.97,144.00 280.72,149.00 284.00,151.06 287.00,151.54 289.46,151.00 293.87,149.00 296.00,147.23 297.66,147.00 299.00,146.27 301.00,146.19 301.94,147.00 302.51,148.00 297.63,154.00 298.10,155.00 300.25,156.00 305.00,157.24 306.81,159.00 306.65,161.00 305.58,162.00 307.00,162.27 308.00,163.01 310.00,163.31 311.54,165.00 311.87,167.00 312.76,168.00 312.86,173.00 313.54,175.00 313.84,179.00 314.79,183.00 319.70,192.00 319.00,193.13 318.00,192.97 316.00,190.48 315.48,191.00 314.66,196.00 312.98,200.00 313.00,201.46 314.00,202.13 321.00,197.24 322.00,197.15 323.00,197.83 323.48,199.00 321.00,201.87 316.00,205.66 316.00,206.61 316.73,208.00 316.71,209.00 316.00,209.90 314.62,209.00 314.00,207.80 313.00,207.87 310.00,210.88 312.00,211.59 313.63,213.00 313.00,213.72 308.62,214.00 307.81,216.00 306.00,218.59 305.98,220.00 303.00,223.34 299.84,225.00 298.00,226.74 295.99,227.00 288.79,231.00 283.23,236.00 275.00,244.74 273.00,248.95 271.00,248.77 270.00,249.77 268.89,251.00 268.74,257.00 268.00,257.72 267.00,257.46 266.00,255.10 265.00,255.58 259.00,261.83 253.00,268.64 252.72,270.00 245.58,278.00 224.00,300.74 223.88,305.00 223.00,306.66 222.00,306.52 220.77,305.00 220.00,304.82 206.00,318.58 204.00,319.80 203.00,319.83 202.05,319.00 202.23,317.00 203.42,315.00 203.00,314.38 192.00,326.80 190.85,329.00 192.00,330.11 196.00,331.31 196.69,332.00 200.00,333.40 200.79,335.00 200.00,335.83 199.00,336.64 196.00,336.69 192.00,333.94 191.00,333.70 189.00,331.89 188.00,331.83 183.00,337.83 181.87,340.00 180.00,342.01 179.00,342.44 178.09,341.00 178.12,340.00 179.53,337.00 179.00,336.58 177.00,336.64 176.36,336.00 176.18,335.00 176.31,333.00 177.00,332.11 177.37,330.00 179.00,325.97 173.00,321.59 170.77,319.00 168.00,316.76 157.00,305.82 155.00,304.52 148.87,299.00 147.00,298.98 144.00,301.46 142.00,302.13 141.00,302.01 140.33,301.00 140.90,300.00 144.00,297.36 145.28,297.00 145.40,296.00 141.00,291.98 134.39,287.00 132.00,286.79 128.74,288.00 127.41,289.00 128.91,290.00 127.00,291.72 124.00,291.78 123.20,291.00 122.68,288.00 123.37,285.00 125.17,281.00 125.01,279.00 116.00,272.67 104.00,261.40 87.31,245.00 87.12,242.00 84.00,238.99 81.00,237.55 79.38,236.00 79.17,233.00 77.66,232.00 76.90,230.00 77.20,225.00 78.14,223.00 78.00,220.67 74.68,222.00 67.00,226.81 66.53,228.00 68.13,229.00 67.00,230.63 64.00,232.47 61.00,233.44 59.54,232.00 60.40,229.00 64.00,225.23 70.00,221.24 77.00,217.21 78.11,217.00 80.00,215.13 81.31,209.00 82.00,207.67 82.30,205.00 83.00,203.87 83.99,200.00 83.70,199.00 85.00,196.30 85.56,192.00 86.00,191.46 86.47,186.00 87.06,185.00 87.25,178.00 88.00,176.32 89.21,169.00 90.00,167.75 90.28,165.00 91.00,163.77 91.27,161.00 93.00,155.64 93.42,152.00 94.00,151.30 94.46,148.00 95.07,147.00 95.42,142.00 96.01,141.00 96.14,137.00 97.00,135.90 97.90,132.00 97.19,131.00 97.27,130.00 99.00,128.33 101.05,128.00 103.00,123.30 103.41,120.00 104.25,118.00 105.00,117.12 108.00,116.42 114.41,108.00 116.00,106.87 116.92,108.00 116.71,109.00 111.88,115.00 107.00,122.97 107.00,127.63 110.40,127.00 116.00,124.17 117.00,123.20 119.60,115.00 123.30,107.00 126.00,102.90 127.53,98.00 129.00,96.75 130.24,94.00 133.09,91.00 134.00,89.49 134.30,88.00 140.00,80.24 142.00,75.32 142.06,73.00 143.00,72.66 144.00,71.29 146.28,67.00 149.29,63.00 156.00,56.42 161.00,53.46 165.00,52.24 166.00,51.54 172.00,50.68 173.48,51.00 174.00,51.92 165.54,54.00 160.52,56.00 156.00,58.97 151.99,63.00 149.00,67.01 146.00,72.52 146.00,74.07 147.00,73.90 148.06,73.00 151.00,69.68 159.00,64.30 160.21,64.00 162.00,62.33 165.00,62.03 166.00,61.24 170.00,60.17 171.00,59.27 173.00,59.14 175.00,58.03 177.40,56.00 179.00,52.87 180.00,52.47 181.00,54.43 182.00,53.27 190.47,53.00 198.35,45.00 200.21,42.00ZM203.00,87.88L200.95,92.00 200.94,95.00 202.00,96.23 203.00,95.88 203.45,89.00ZM208.00,89.30L207.68,91.00 206.95,92.00 206.73,94.00 206.00,95.17 205.84,100.00 213.00,111.87 213.00,108.37 211.37,104.00 211.00,101.02 210.38,100.00 210.18,96.00 209.48,95.00ZM221.00,62.98L218.00,65.77 215.00,71.46 214.89,76.00 218.00,85.49 219.67,89.00 220.00,90.87 221.77,94.00 222.00,95.83 223.00,97.26 224.00,97.31 225.00,96.31 226.00,96.16 229.00,97.41 230.00,97.01 230.45,96.00 233.00,93.60 236.00,92.29 242.00,92.43 245.00,94.42 247.74,97.00 251.46,102.00 254.58,108.00 257.73,116.00 257.67,123.00 254.25,131.00 257.00,131.10 258.00,130.49 260.00,130.34 262.00,131.24 262.70,131.00 263.39,128.00 264.02,127.00 264.04,124.00 263.33,123.00 262.00,118.61 261.42,118.00 261.06,116.00 260.26,115.00 258.23,110.00 258.00,108.00 257.26,107.00 257.12,105.00 255.28,100.00 255.00,97.64 254.45,97.00 254.00,93.70 253.00,91.55 237.00,79.66 236.00,79.51 234.55,80.00 226.00,86.32 225.00,86.76 224.00,86.33 223.70,86.00 224.13,85.00 226.13,83.00 224.37,82.00 224.90,81.00 230.00,78.27 233.43,77.00 233.34,76.00 230.00,71.85ZM230.00,59.38L229.25,60.00 230.00,61.15 233.61,65.00 233.98,66.00 236.00,68.33 238.86,71.00 241.00,72.59 242.77,72.00 244.00,70.87 245.25,69.00 245.24,68.00 240.47,63.00 234.66,60.00ZM247.00,70.78L245.69,72.00 246.00,72.33 247.00,72.02ZM257.00,93.97L257.00,96.81 257.72,98.00 258.99,104.00 259.69,105.00 260.00,107.15 260.69,108.00 260.94,110.00 261.73,111.00 265.00,120.40 266.00,120.59 269.29,110.00 270.00,109.13 272.14,103.00 270.31,101.00 268.56,100.00 265.00,100.23 263.60,98.00ZM282.00,156.85L278.58,158.00 278.00,158.58 275.60,159.00 275.00,159.60 272.61,160.00 272.00,160.61 269.66,161.00 268.83,162.00 271.00,166.22 280.00,166.12 281.00,165.46 284.00,165.06 285.00,162.62 285.00,159.73 284.01,157.00ZM288.00,155.85L290.00,157.19 291.27,157.00 291.48,156.00 289.00,155.58ZM293.00,152.85L292.13,153.00 293.00,153.56 294.00,153.56 294.66,153.00 294.00,152.64ZM295.00,151.84L294.64,152.00 295.00,152.66 295.33,152.00ZM304.00,164.92L301.00,166.37 300.91,167.00 303.00,169.22 309.18,169.00 308.99,165.00 308.00,164.69ZM310.00,173.72L307.46,176.00 307.83,179.00 308.85,181.00 312.00,183.20 312.33,183.00 312.29,181.00 311.46,179.00 311.00,175.42ZM86.00,224.15L85.50,227.00 84.89,228.00 85.00,229.87 87.09,228.00 87.00,224.01ZM92.00,172.86L92.00,175.60 92.28,174.00 92.95,173.00ZM93.00,169.63L92.62,172.00 93.00,172.99 93.36,170.00ZM94.00,167.79L93.60,169.00 94.00,169.39ZM97.00,191.81L96.00,192.34 93.88,199.00 93.71,203.00 95.00,204.14 95.30,201.00 97.11,195.00ZM102.00,166.70L99.62,178.00 99.00,179.01 98.61,182.00 98.00,183.12 98.00,185.19 99.19,185.00 100.00,182.69 101.32,173.00 102.11,171.00ZM105.00,169.91L104.78,174.00 104.00,176.33 103.38,181.00 104.00,181.24 106.00,177.90 106.39,176.00 107.10,175.00 107.30,173.00 107.00,170.95 106.00,169.66ZM114.00,127.80L111.00,129.51 107.00,130.81 106.74,133.00 107.00,133.87 108.63,135.00 114.00,137.62 114.52,137.00 115.09,134.00 115.52,128.00 115.00,127.25ZM123.00,188.48L122.00,190.28 121.64,193.00 120.85,194.00 119.58,198.00 116.84,202.00 116.46,203.00 117.00,203.46 119.00,203.20 121.00,202.17 121.17,201.00 125.00,197.32 129.49,197.00 130.00,196.03 128.00,192.23ZM124.00,185.59L123.91,186.00 125.00,186.90 125.00,185.71ZM130.00,125.25L128.78,130.00 129.55,132.00 128.55,134.00 128.64,137.00 127.78,139.00 128.00,140.27 129.00,139.48 130.00,137.60 131.02,138.00 131.00,139.38 132.00,139.52 133.00,139.33 133.49,138.00 133.00,135.99 131.53,135.00 131.68,130.00 131.00,126.16ZM136.00,103.58L133.88,108.00 133.25,112.00 136.00,113.19 137.68,112.00 137.90,110.00 137.52,109.00 137.60,107.00 136.60,104.00ZM147.00,85.97L146.48,87.00 144.00,89.41 143.13,92.00 141.74,93.00 142.00,94.06 147.00,95.15 148.13,95.00 148.70,93.00 149.47,92.00 149.16,91.00 149.56,90.00 149.10,89.00 147.58,88.00ZM153.00,82.85L152.00,84.03 153.53,85.00 151.66,91.00 152.46,96.00 157.00,97.23 159.00,97.27 159.39,97.00 159.00,85.50 156.00,82.78 155.00,82.51ZM157.00,75.74L155.00,77.25 153.87,79.00 156.00,80.03 158.00,79.27 158.19,76.00ZM161.00,152.71L159.00,155.30 157.00,160.10 155.88,165.00 156.00,167.17 157.00,166.75 158.00,165.32 159.49,160.00 161.00,157.01 161.33,155.00 162.02,154.00ZM163.00,70.81L163.00,71.72 164.70,71.00 164.00,70.55ZM165.00,69.99L165.00,70.07ZM170.00,91.85L168.85,93.00 170.00,95.90ZM173.00,69.73L172.10,70.00 171.57,71.00 172.00,72.20 174.09,71.00 174.00,69.54ZM175.00,72.92L173.30,74.00 172.84,75.00 174.00,77.77 175.01,76.00ZM176.00,156.84L173.00,159.70 172.47,162.00 170.00,166.95 165.93,177.00 165.30,182.00 164.01,185.00 164.67,186.00 164.71,187.00 164.21,190.00 164.77,191.00 166.69,192.00 171.00,191.16 172.00,190.36 173.54,190.00 175.00,189.24 178.00,186.37 186.00,182.33 195.60,180.00 197.42,178.00 192.00,177.57 190.00,176.93 186.00,176.91 181.00,177.98 179.00,179.58 177.00,179.69 176.56,179.00 179.00,176.25 180.32,176.00 181.00,175.32 185.00,174.37 191.00,174.30 194.00,175.15 199.00,175.43 200.00,175.38 200.17,175.00 200.29,170.00 201.13,167.00 201.42,162.00 190.00,160.64 188.00,159.80 182.00,158.53 178.60,157.00ZM178.00,76.34L176.23,94.00 177.13,95.00 176.54,98.00 181.00,98.47 181.97,99.00 181.86,100.00 180.91,101.00 183.00,102.22 183.18,101.00 183.00,100.36 182.26,100.00 182.20,97.00 181.37,95.00 181.20,93.00 181.00,92.47 179.90,92.00 180.24,91.00 180.14,86.00 179.38,84.00 179.00,80.16ZM182.00,56.71L181.51,57.00 181.67,58.00 184.27,57.00 184.00,56.48ZM185.00,65.60L184.00,66.58 182.80,69.00 183.00,73.40 184.00,75.53 185.95,78.00 188.00,79.34 189.00,78.25 191.05,74.00 191.18,70.00 189.40,67.00 189.42,66.00 189.00,65.54 186.00,65.17ZM186.00,55.74L185.55,56.00 187.99,56.00 187.00,55.40ZM195.00,52.66L193.83,54.00 193.76,55.00 195.00,54.66 195.38,53.00ZM201.00,44.67L197.82,48.00 195.96,51.00 196.00,52.14 197.00,51.07 198.00,50.77 201.00,52.90 202.00,52.11 202.01,47.00ZM203.00,108.75L201.83,112.00 201.58,114.00 202.00,114.15 204.22,113.00 204.00,110.00ZM207.00,105.76L206.25,106.00 207.00,111.67 208.00,112.24 210.43,112.00 209.15,109.00ZM221.00,110.38L220.94,113.00 221.58,114.00 222.00,117.15 222.60,118.00 223.92,125.00 225.00,125.19 225.31,122.00 225.00,119.10ZM227.00,129.60L227.00,132.09ZM228.00,99.99L227.98,100.00ZM231.00,230.99L230.00,232.52 228.00,232.99 226.00,232.68 224.00,231.51 223.00,232.64 223.00,233.63 225.00,233.87 228.00,233.01 229.00,233.41 231.00,233.22 233.00,232.48 233.31,231.00ZM233.00,102.58L233.00,103.18 234.42,103.00 234.00,102.57ZM236.00,106.88L233.00,107.94 231.98,109.00 231.93,115.00 232.87,119.00 236.00,123.83 243.00,132.03 243.33,130.00 244.05,129.00 244.37,125.00 245.03,123.00 245.00,112.66 244.10,110.00 241.41,107.00 239.00,106.40ZM248.00,110.83L248.00,111.24ZM249.00,111.87L248.60,112.00 248.59,122.00 246.83,128.00 247.00,129.09 249.00,125.46 250.13,122.00 250.00,116.30ZM251.00,156.72L251.00,157.70ZM252.00,157.99L252.00,159.42ZM254.00,131.56L254.00,132.05ZM257.00,132.96L252.84,135.00 253.00,136.32 254.88,140.00 256.00,140.38 257.00,140.09 261.00,136.24 261.99,134.00 261.00,132.73ZM262.00,187.95L262.17,188.00ZM263.00,186.97L263.92,187.00ZM247.00,73.75L245.00,74.72 244.87,76.00 250.00,80.70 250.54,80.00 250.11,77.00 249.35,76.00 249.00,74.38 248.00,73.77ZM265.00,152.97L264.85,155.00 267.23,159.00 268.36,159.00 269.00,158.36 271.00,158.11 272.00,157.31 274.19,157.00 275.00,156.33 277.00,156.02 278.00,155.22 279.11,155.00 276.00,153.90 268.00,153.79 266.00,152.95ZM269.00,136.69L268.00,140.23 267.55,146.00 268.64,147.00 270.00,147.24 271.10,148.00 273.00,148.25 274.00,149.00 277.00,149.43 277.32,149.00 273.29,144.00ZM282.00,183.51L279.41,187.00 275.46,190.00 273.00,192.67 271.00,196.64 271.00,198.68 278.00,191.83 284.00,186.87 284.59,186.00ZM283.00,181.92L282.54,182.00 283.48,182.00ZM285.00,189.79L284.61,190.00 285.00,190.15ZM291.00,161.57L290.66,163.00 291.00,163.62 293.36,163.00 292.43,162.00ZM295.00,156.99L292.98,159.00 295.00,161.03 297.00,161.70 299.00,161.13 302.19,159.00 299.77,158.00ZM305.00,177.93L305.00,178.22ZM310.00,184.86L309.11,185.00 309.30,187.00 308.90,188.00 308.66,194.00 308.00,195.00 309.93,198.00 311.00,198.42 312.00,196.49 313.28,189.00 313.00,187.70ZM93.00,203.94L91.83,206.00 91.58,209.00 92.00,209.15 94.06,209.00 94.02,206.00ZM96.00,214.67L96.00,217.75 97.17,215.00 97.00,214.62ZM99.00,198.46L98.52,202.00 97.95,203.00 97.71,207.00 97.79,209.00 99.00,209.28 100.00,206.54 100.18,204.00 100.00,199.97ZM107.00,156.51L106.23,165.00 108.00,169.17 109.00,165.38 109.12,163.00 108.41,161.00 108.00,156.63ZM108.00,137.95L108.95,138.00ZM109.00,138.01L108.76,139.00 109.46,140.00 113.33,141.00 113.06,140.00ZM121.00,204.85L117.00,205.81 111.40,209.00 114.00,209.83 121.00,210.33 122.17,211.00 126.00,211.41 130.32,213.00 133.00,213.41 135.54,213.00 139.00,210.77 139.00,209.17 137.70,208.00 125.00,207.72 123.00,206.71ZM131.00,141.90L129.10,143.00 128.81,144.00 134.00,147.19 134.70,147.00 134.90,144.00 134.00,141.28ZM137.00,114.99L135.00,115.82 134.86,117.00 135.72,120.00 135.98,124.00 136.57,125.00 137.87,135.00 138.47,137.00 139.00,137.45 139.83,137.00 140.00,135.64 140.36,136.00 140.17,137.00 141.00,137.38 141.31,137.00 141.08,135.00 140.20,134.00 140.11,127.00 139.62,126.00 139.01,121.00 138.46,120.00 138.36,117.00 138.00,115.70ZM142.00,96.57L141.10,101.00 141.67,102.00 142.00,107.37 143.00,109.27 145.00,109.25 149.14,107.00 151.13,101.00 151.00,100.56 150.00,100.55 149.22,98.00 147.00,97.61 146.00,96.84ZM152.00,143.88L151.40,145.00 152.00,145.33 153.30,144.00 153.00,143.01ZM153.00,98.74L152.99,102.00 154.00,105.05 158.00,102.00 159.20,100.00 157.00,98.88ZM156.00,169.79L156.00,170.59ZM157.00,209.81L155.85,211.00 155.81,213.00 157.00,218.59 157.76,220.00 158.00,224.06 160.00,223.22 160.59,222.00 159.00,214.34ZM160.00,203.76L159.00,205.94 159.00,207.00 161.00,209.03 162.00,209.31 162.22,207.00 161.02,206.00 160.64,205.00 161.31,204.00 161.00,203.58ZM165.00,72.73L164.00,73.17 163.78,74.00 164.00,76.02 165.00,76.30 166.00,76.11 167.15,75.00 166.83,73.00ZM170.00,108.79L169.62,109.00 170.22,109.00ZM175.00,85.95L175.00,86.15ZM171.00,202.87L167.76,204.00 164.58,206.00 164.84,212.00 169.00,216.30 170.00,216.04 174.66,210.00 176.06,209.00 176.38,208.00 178.70,205.00 178.06,204.00 175.52,203.00 173.00,202.58ZM181.00,205.75L180.00,206.40 177.88,209.00 177.58,210.00 170.59,218.00 171.00,219.40 174.69,225.00 178.00,232.20 179.00,232.10 182.00,229.06 186.04,223.00 187.25,220.00 189.00,217.40 189.27,216.00 190.00,215.27 191.52,210.00 190.47,209.00 189.00,208.69 186.00,206.90 183.00,205.86ZM186.00,202.85L185.54,203.00 187.30,204.00 189.00,204.31 192.00,206.12 193.00,206.22 194.13,204.00 194.00,202.76ZM191.00,198.80L190.63,199.00 194.59,199.00ZM197.00,203.58L195.88,206.00 195.85,208.00 201.23,211.00 203.00,211.29 205.60,211.00 210.00,209.24 212.00,209.00 213.12,208.00 213.00,206.84 210.59,206.00 203.00,204.48 202.00,203.91 198.00,203.34ZM201.00,199.86L200.75,200.00 201.94,201.00 206.00,201.40 206.81,202.00 209.00,202.23 210.32,203.00 214.00,203.56 215.04,203.00 215.00,201.98 209.00,200.57 208.00,199.87 203.00,199.47ZM178.00,111.64L177.95,113.00 178.66,114.00 179.00,115.83 180.00,115.52 180.00,113.57ZM185.00,79.34L184.64,80.00 185.00,82.68 186.00,82.34 186.27,81.00ZM188.00,84.67L185.97,87.00 185.93,89.00 189.00,97.37 192.00,92.39 193.00,90.16 193.02,89.00 189.87,85.00 189.00,84.32ZM199.00,66.88L197.00,68.59 195.00,71.23 192.00,78.01 191.55,80.00 190.76,81.00 191.71,84.00 194.00,87.10 195.00,86.90 197.28,82.00 199.00,79.60 199.46,78.00 201.00,75.62 201.52,73.00 202.12,72.00 202.00,67.60 201.00,66.81ZM204.00,115.85L202.67,117.00 206.00,119.34 206.43,119.00 206.00,116.71 205.00,115.80ZM209.00,114.86L208.67,115.00 209.00,117.75 211.00,122.39 212.00,124.21 216.00,128.06 215.87,123.00 214.00,116.30 213.00,115.96 212.00,116.67 211.30,116.00 211.24,115.00ZM226.00,234.70L223.00,235.76 222.00,236.73 220.82,239.00 220.97,244.00 221.52,245.00 222.00,249.41 227.00,242.40 227.16,242.00 226.18,241.00 226.11,240.00 227.00,238.77 230.22,237.00 231.53,235.00 231.00,234.38 228.00,234.93ZM236.00,163.82L234.87,165.00 234.69,167.00 235.00,167.20 236.70,167.00 238.18,166.00 238.00,164.80 237.00,163.94ZM240.00,153.67L239.82,155.00 241.00,156.46 241.49,156.00ZM243.00,159.77L243.00,160.10ZM244.00,160.57L244.00,161.81ZM247.00,169.90L247.00,171.41 248.00,171.99 248.17,171.00ZM248.00,151.72L248.00,152.26ZM252.00,187.89L250.00,188.67 243.00,189.00 242.00,189.64 239.36,190.00 237.44,191.00 235.82,193.00 235.53,198.00 233.00,201.13 233.00,204.20 234.23,205.00 235.32,205.00 247.00,194.33 256.36,188.00 256.00,187.34ZM254.00,161.97L253.00,162.38 252.79,163.00 254.18,163.00ZM260.00,139.97L257.83,142.00 259.00,142.39 260.00,142.01ZM261.00,181.91L254.73,184.00 253.68,185.00 255.32,185.00 256.00,184.45 261.00,183.02 261.38,182.00ZM267.00,197.77L260.00,205.89 257.57,210.00 259.00,210.43 260.70,210.00 264.00,206.01 265.00,204.53 266.29,200.00 267.00,199.12ZM283.00,190.98L276.00,196.86 268.82,204.00 267.00,207.91 267.00,211.25 269.00,212.05 276.00,212.83 279.20,212.00 281.00,210.15 281.37,209.00 283.04,207.00 288.09,197.00 289.14,194.00 289.00,190.55 287.53,191.00 281.00,197.40 276.00,203.87 273.02,209.00 272.00,209.63 270.30,208.00 270.56,207.00 277.59,198.00 284.13,191.00 284.00,190.64ZM292.00,196.30L291.76,198.00 290.77,200.00 288.84,203.00 287.68,206.00 285.00,209.99 285.00,211.18 287.60,211.00 289.00,210.38 296.88,210.00 299.13,208.00 299.00,206.53 298.00,204.84 294.38,200.00 293.00,196.81ZM299.00,167.95L295.00,169.98 293.83,171.00 294.00,171.54 297.77,171.00 300.29,170.00 300.03,169.00ZM92.00,215.00L91.00,215.71 89.54,216.00 88.00,218.02 87.85,220.00 91.00,222.34 92.08,222.00 92.46,216.00ZM98.00,218.44L94.84,224.00 95.00,226.19 97.00,228.13 98.00,228.18 99.00,227.37 100.68,227.00 100.00,222.03 99.24,221.00 99.00,218.91ZM109.00,146.10L107.96,149.00 109.47,153.00 110.00,156.07 110.63,157.00 110.90,162.00 111.30,163.00 110.73,172.00 111.00,172.45 113.00,172.09 114.00,171.21 117.00,171.13 118.56,170.00 118.64,169.00 118.18,166.00 116.32,161.00 116.00,157.66 115.31,157.00 115.00,155.47 112.23,151.00 112.01,150.00ZM112.00,142.90L111.63,143.00 111.88,145.00 114.00,148.05 114.27,144.00 113.21,143.00ZM132.00,217.81L124.85,221.00 123.75,222.00 134.00,230.33 134.54,229.00 136.00,227.31 142.00,224.14 144.13,222.00 143.00,220.83 136.00,217.81 134.00,217.44ZM139.00,213.83L137.55,215.00 138.72,216.00 142.26,217.00 142.06,215.00 141.00,213.58ZM129.00,146.79L129.00,147.43 130.42,149.00 130.00,149.44 128.00,149.46 125.82,158.00 126.00,160.67 128.00,159.68 128.79,160.00 128.00,164.82 129.00,166.13 130.00,166.17 133.99,164.00 137.32,161.00 137.00,160.10 136.00,160.74 135.11,160.00 135.11,159.00 137.02,157.00 136.26,155.00 136.00,151.75 134.90,150.00ZM138.00,162.64L136.00,164.51 131.61,167.00 132.00,167.52 136.00,167.31 139.13,168.00 139.00,163.96ZM140.00,139.91L139.40,141.00 140.00,146.82 140.64,148.00 141.00,150.88 142.00,152.22 143.00,152.31 143.38,152.00 143.12,147.00 142.20,144.00 141.47,143.00 141.83,141.00 141.26,140.00ZM149.00,110.89L146.00,112.55 143.97,113.00 143.15,115.00 144.00,121.83 145.47,123.00 145.00,123.81 145.46,125.00 144.87,127.00 145.66,129.00 146.74,137.00 147.25,138.00 150.00,138.22 151.00,135.82 149.37,133.00 149.10,131.00 148.33,130.00 147.56,127.00 148.24,123.00 150.18,118.00 150.49,113.00 150.00,111.28ZM153.00,148.83L149.85,153.00 149.98,157.00 151.00,158.34 151.31,156.00 152.05,155.00 152.22,153.00 153.11,151.00ZM154.00,142.88L153.04,143.00ZM157.00,147.69L156.00,149.01 154.51,155.00 152.00,161.01 151.87,164.00 153.00,166.77 155.29,158.00 159.19,151.00ZM158.00,261.47L157.85,262.00 161.00,266.77 162.00,267.27 162.52,264.00 162.16,263.00 160.00,261.80ZM161.00,211.86L160.84,213.00 161.68,215.00 162.00,217.34 162.22,213.00ZM167.00,77.86L164.76,79.00 164.01,81.00 165.00,88.68 167.00,91.18 169.00,88.25 169.18,87.00 168.00,79.73ZM165.00,215.79L165.00,218.63 166.00,219.25 167.16,218.00ZM168.00,219.99L165.80,222.00 165.91,230.00 167.00,231.15 171.58,234.00 174.00,234.28 175.41,233.00 175.07,231.00 171.00,223.23 169.00,220.66ZM181.00,247.89L177.55,249.00 171.90,252.00 172.46,256.00 171.95,258.00 171.97,261.00 173.00,261.28 176.00,263.41 179.00,266.18 182.46,266.00 183.00,265.46 185.33,265.00 187.10,264.00 186.00,259.71 184.27,256.00 183.00,251.58 182.42,251.00 182.00,248.97ZM185.00,228.99L185.03,229.00ZM194.00,211.77L193.79,213.00 193.00,214.01 193.00,215.17 194.03,215.00 195.00,214.22 196.62,214.00 197.41,213.00 195.70,212.00ZM198.00,215.86L195.79,217.00 196.80,218.00 196.00,219.30 193.00,219.38 191.00,218.72 186.00,227.51 186.00,228.52 196.25,225.00 201.00,222.66 208.83,221.00 210.31,220.00 203.00,215.85 201.00,215.40ZM210.00,211.86L209.00,212.54 206.63,213.00 206.73,214.00 211.00,216.15 212.14,212.00 212.00,211.70ZM187.00,97.76L186.57,98.00 186.48,99.00 187.00,101.30 187.36,100.00ZM194.00,148.57L192.32,153.00 191.00,153.89 190.00,152.64 189.00,152.58 185.00,154.30 180.34,155.00 182.00,156.04 189.00,158.13 196.00,159.27 202.00,159.19 202.15,156.00 200.18,153.00 196.00,148.99ZM200.00,96.81L199.00,98.10 197.64,103.00 197.00,103.82 195.69,108.00 194.91,109.00 194.34,112.00 195.00,113.07 196.00,112.49 198.00,109.90 202.00,101.11 202.00,99.38ZM236.00,169.92L236.00,170.43 239.35,170.00ZM234.00,210.81L232.91,212.00 233.00,215.77 234.00,215.37 237.06,212.00 236.00,210.82ZM254.00,165.83L254.00,166.90 254.71,168.00 256.00,168.33 256.00,167.43 255.21,166.00ZM257.00,186.87L256.38,187.00 257.00,187.33 257.34,187.00ZM258.00,189.73L251.01,194.00 245.86,198.00 237.78,206.00 237.99,207.00 241.00,207.39 243.06,206.00 249.00,199.62 256.01,194.00 258.00,191.32ZM261.00,213.83L260.00,214.95 259.71,216.00 260.01,217.00 262.00,217.46 262.42,214.00ZM263.00,210.25L262.51,211.00 263.00,211.15ZM265.00,224.80L264.67,226.00 265.00,226.24 266.10,225.00ZM266.00,214.61L266.00,216.24 269.26,215.00ZM274.00,216.00L273.00,216.64 270.46,217.00 266.00,218.80 265.82,221.00 267.00,222.15 269.11,223.00 272.87,220.00 276.19,216.00ZM281.00,216.77L274.76,223.00 275.00,223.75 279.00,223.05 280.00,222.29 281.70,222.00 289.26,218.00 289.00,216.94ZM291.00,212.87L284.63,214.00 292.00,215.13 293.83,214.00 294.33,213.00ZM299.00,220.91L297.81,222.00 298.00,222.59 300.39,221.00 300.00,220.30ZM299.00,172.86L296.41,174.00 298.70,175.00 299.75,175.00 302.18,173.00ZM88.00,229.90L84.95,233.00 86.86,236.00 88.00,236.62 88.20,234.00 90.68,232.00 90.00,229.46ZM95.00,234.67L94.53,236.00 95.00,237.00 97.00,237.42 98.59,236.00 97.00,234.17ZM99.00,237.68L97.98,239.00 101.00,241.34 111.00,250.70 111.31,250.00 111.00,249.55 104.16,241.00 103.00,240.30 102.00,240.42 100.83,238.00ZM100.00,229.87L100.00,230.40 101.00,230.48 101.17,230.00ZM110.00,175.52L109.00,176.25 107.73,180.00 104.30,185.00 105.83,185.00 107.00,184.42 114.87,184.00 117.17,183.00ZM117.00,172.93L113.70,175.00 114.00,175.33 115.00,175.12 119.19,173.00 119.00,172.51ZM135.00,230.84L135.00,231.11ZM144.00,225.94L143.08,226.00ZM131.00,167.73L130.81,168.00 131.38,168.00ZM132.00,169.94L130.79,171.00 132.00,174.27 133.00,174.59 135.00,173.18 137.00,173.20 140.00,175.15 141.05,174.00 140.43,171.00 138.58,170.00ZM144.00,157.98L143.00,158.01 142.83,159.00 144.00,164.90 144.90,162.00ZM145.00,224.88L145.00,225.19ZM146.00,226.87L140.00,230.63 138.00,231.60 135.76,232.00 138.00,234.17 141.00,236.11 147.00,237.29 152.31,239.00 151.00,234.60 148.62,231.00 148.00,228.52 147.00,226.92ZM147.00,173.83L146.59,174.00 146.91,178.00 147.58,179.00 147.86,182.00 149.00,182.29 150.00,180.00 150.14,177.00ZM148.00,140.70L147.57,141.00 148.00,144.64 149.00,143.41 149.40,141.00ZM150.00,149.90L150.00,150.30 150.59,150.00ZM151.00,145.40L151.00,146.29 151.33,146.00ZM160.00,274.88L154.10,279.00 158.00,282.18 159.00,281.27 160.00,278.60 160.38,276.00ZM161.00,224.99L159.77,226.00 161.00,226.66ZM167.00,95.01L166.23,97.00 168.00,97.42 169.19,97.00ZM165.00,264.96L165.00,266.20 166.14,265.00 166.00,264.66ZM166.00,234.34L165.48,240.00 166.00,242.12 171.00,239.00 171.27,238.00 169.31,236.00ZM178.00,270.55L178.00,271.16 179.00,271.33 179.24,271.00ZM182.00,269.98L184.00,274.02 187.90,274.00 189.26,273.00 189.00,271.81 187.62,271.00ZM187.00,266.86L185.61,268.00 188.00,268.27 188.00,266.85ZM212.00,232.92L197.00,241.38 195.01,242.00 189.46,245.00 188.99,246.00 190.00,246.19 193.60,249.00 194.71,251.00 194.00,251.59 191.00,250.52 187.24,248.00 185.00,247.25 184.61,248.00 184.90,250.00 185.67,251.00 185.98,253.00 188.69,259.00 189.00,261.01 190.00,262.46 192.00,262.11 200.06,257.00 208.13,249.00 211.00,239.65 208.13,240.00 207.00,240.71 203.00,241.82 199.00,243.80 198.00,243.88 197.23,243.00 198.00,241.77 200.00,240.37 202.00,240.00 203.00,239.23 207.62,238.00 209.00,237.25 211.05,237.00 212.20,236.00 213.13,234.00 213.00,232.72ZM198.00,113.55L198.00,114.31 198.42,114.00ZM199.00,111.90L198.55,113.00 199.00,113.42ZM240.00,220.81L235.00,226.60 234.80,228.00 236.02,228.00 238.31,224.00 240.01,222.00 240.30,221.00ZM243.00,229.81L243.21,230.00ZM251.00,219.78L250.00,220.23 244.00,227.97 243.67,229.00 244.00,229.34 247.00,228.06 254.26,223.00 254.29,221.00 253.00,220.00ZM253.00,216.53L252.80,217.00 254.00,218.15 256.00,218.31 256.48,218.00 255.47,217.00ZM256.00,212.84L254.85,214.00 257.00,215.13 257.60,215.00 258.18,214.00 258.01,213.00ZM262.00,238.81L258.00,244.55 256.76,247.00 257.00,247.32 261.28,244.00 263.00,242.07 263.00,240.55ZM268.00,228.85L267.00,230.21 270.03,230.00 269.00,228.67ZM271.00,231.90L267.00,232.81 265.71,234.00 266.00,238.56 267.00,238.48 271.00,233.36ZM280.00,224.82L278.00,225.66 272.00,225.87 271.19,227.00 272.23,229.00 277.00,229.10 279.13,228.00 279.90,226.00 281.27,225.00ZM302.00,179.92L299.72,181.00 298.00,182.47 298.00,184.70 298.92,187.00 303.01,191.00 306.00,193.23 307.12,187.00 306.22,183.00 304.23,181.00ZM102.00,254.50L102.00,255.23 102.57,255.00ZM103.00,255.40L103.00,256.27 103.68,256.00ZM104.00,256.32L103.73,257.00 108.76,262.00 118.10,270.00 125.76,276.00 128.00,276.24 127.77,275.00 123.03,271.00 122.00,270.54 112.00,261.96ZM117.00,185.91L115.00,186.64 108.28,187.00 101.94,188.00 101.65,190.00 100.92,191.00 100.77,193.00 101.00,195.67 102.64,201.00 102.66,206.00 102.00,207.33 102.00,209.19 104.00,209.11 108.25,207.00 111.18,205.00 115.08,201.00 117.00,198.00 118.35,194.00 119.08,193.00 119.27,191.00 120.12,189.00 120.15,186.00ZM119.00,176.00L116.97,177.00 116.13,178.00 116.98,180.00 120.00,182.29 120.68,179.00 120.07,176.00ZM146.00,239.84L145.30,240.00 149.47,245.00 152.48,250.00 153.00,251.90 154.00,252.42 154.99,252.00 156.06,251.00 157.12,249.00 155.00,243.41 153.42,242.00ZM148.00,169.59L147.62,171.00 151.00,174.38 152.00,173.03 152.00,171.46 150.44,171.00 150.00,170.05 149.00,170.40ZM151.00,148.79L151.00,149.72 151.42,149.00ZM158.00,287.64L157.84,288.00 158.81,289.00 161.87,291.00 163.00,291.36 163.62,291.00 160.00,287.99 159.00,287.40ZM160.00,230.38L160.00,231.81 161.00,235.22 161.63,236.00 162.00,238.59 162.16,232.00 161.36,231.00ZM167.00,113.82L165.00,115.81 164.00,118.00 162.17,126.00 163.00,131.58 164.00,133.54 173.23,128.00 175.00,125.41 175.52,123.00 174.05,117.00 173.00,115.47 171.00,113.82ZM165.00,270.87L164.54,272.00 164.88,274.00 165.69,275.00 166.00,276.29 167.53,278.00 167.38,279.00 168.78,282.00 168.84,283.00 170.60,285.00 171.58,287.00 172.00,289.30 173.63,292.00 174.98,296.00 176.60,298.00 180.00,300.87 181.00,300.23 181.48,298.00 182.00,297.44 182.26,295.00 183.03,294.00 183.32,291.00 184.00,289.96 184.12,285.00 183.15,280.00 181.00,279.80 177.00,281.73 176.00,281.79 174.77,281.00 174.21,280.00 174.39,279.00 176.00,277.37 180.52,276.00 179.59,275.00 176.00,272.94 173.00,272.69 172.28,272.00 172.00,270.93ZM168.00,253.84L165.87,255.00 165.85,258.00 169.00,259.19 169.83,255.00 169.54,254.00ZM171.00,262.85L170.63,264.00 172.83,264.00ZM186.00,278.84L185.83,281.00 186.73,285.00 186.72,289.00 185.63,295.00 185.00,295.69 184.78,298.00 184.00,299.17 183.64,303.00 184.23,304.00 189.00,307.18 191.00,302.75 192.41,297.00 193.00,296.37 195.00,290.52 195.06,288.00 194.33,287.00 194.00,284.84 193.15,283.00 192.00,283.51 191.00,283.32 188.29,280.00ZM190.00,276.83L189.38,277.00 190.00,277.26ZM206.00,254.74L199.00,260.58 196.00,262.66 191.38,265.00 190.85,266.00 190.92,267.00 192.00,268.43 195.00,268.23 202.00,266.23 203.16,265.00 205.00,260.39ZM209.00,286.40L208.53,288.00 209.00,288.32 210.09,287.00ZM212.00,272.88L210.91,276.00 210.59,280.00 210.00,280.78 209.87,282.00 210.00,282.87 212.00,285.17 214.04,284.00 221.00,277.31 225.31,274.00 225.00,273.23 224.00,272.92ZM199.00,118.78L198.00,120.41 197.81,122.00 198.67,124.00 198.98,127.00 199.78,129.00 199.64,133.00 198.89,134.00 198.92,135.00 200.00,136.34 202.00,136.20 203.47,137.00 203.00,137.77 201.00,137.63 199.97,138.00 202.97,145.00 204.00,146.20 204.42,146.00 204.70,141.00 205.64,139.00 204.77,137.00 206.00,136.03 209.00,136.40 215.00,136.20 215.12,135.00 208.00,123.51 206.00,121.68 201.39,119.00ZM240.00,234.76L237.94,236.00 229.73,247.00 222.00,255.97 221.60,257.00 218.00,261.44 216.69,264.00 213.00,268.71 212.69,270.00 230.00,270.18 235.00,265.68 235.14,265.00 234.41,264.00 234.00,260.93 233.27,259.00 234.26,255.00 236.16,251.00 237.45,249.00 243.00,243.23 251.21,237.00 251.00,236.63 241.00,236.80 240.15,236.00 240.32,235.00ZM258.00,218.75L257.55,219.00 259.00,219.77 259.18,219.00ZM258.00,257.85L251.38,264.00 247.82,268.00 250.00,268.14 251.70,267.00 255.46,262.00 259.15,258.00 259.00,257.34ZM261.00,254.92L259.85,256.00 260.00,256.79 262.00,255.10 262.00,254.29ZM263.00,252.89L263.00,253.49 263.49,253.00ZM301.00,191.96L301.00,195.14 302.57,198.00 303.00,200.16 304.00,200.01 305.12,196.00ZM307.00,198.66L304.86,203.00 304.95,205.00 306.00,206.23 306.75,206.00 309.00,203.25 309.31,202.00 309.00,200.53 307.83,199.00ZM128.00,281.79L127.00,282.53 126.59,285.00 126.00,286.03 128.00,286.14 129.00,285.37 131.00,284.99 131.20,284.00ZM103.00,215.75L101.84,218.00 101.92,220.00 102.64,221.00 103.00,226.22 106.00,226.07 116.54,222.00 116.68,221.00 115.27,220.00 109.47,217.00 106.00,215.85 104.00,215.48ZM108.00,212.97L108.95,214.00 115.00,216.62 121.00,220.10 124.00,219.02 129.23,216.00 123.00,213.91 120.00,213.69 118.00,212.98ZM116.00,203.46L115.76,204.00 116.46,204.00ZM153.00,268.81L152.00,269.13 151.63,271.00 149.78,275.00 150.32,276.00 152.00,277.20 153.00,277.22 155.00,276.05 159.99,272.00 158.42,270.00ZM154.00,261.94L153.58,266.00 156.13,267.00 157.47,267.00 155.00,261.69ZM160.00,259.78L159.34,260.00 160.00,260.60 161.00,260.34 163.00,260.89 163.00,259.88ZM163.00,183.13L161.93,185.00 161.40,188.00 162.00,188.53 162.52,188.00 162.70,186.00 163.98,185.00ZM170.00,132.79L166.71,135.00 170.66,135.00 171.31,133.00 171.00,132.10ZM170.00,291.28L170.00,292.09ZM178.00,309.64L178.00,310.12ZM181.00,327.79L179.85,331.00 180.00,332.83 183.40,331.00 184.33,330.00 184.28,329.00 182.87,328.00ZM183.00,308.63L182.59,309.00 182.95,312.00 186.00,316.36 187.11,315.00 187.04,314.00 186.20,313.00 186.17,311.00ZM166.00,260.76L166.00,262.26 168.00,262.25 167.48,261.00ZM169.00,265.69L169.00,266.20 170.83,266.00ZM201.00,268.72L199.00,269.76 194.00,270.52 193.73,271.00 196.00,272.02 198.75,272.00 201.13,271.00 201.45,269.00ZM204.00,289.98L203.00,291.28 203.00,294.04 204.00,291.59ZM205.00,284.37L205.00,286.49ZM211.00,289.81L211.00,290.21 212.22,290.00 212.00,289.60ZM213.00,307.72L213.00,308.06ZM198.00,141.75L195.58,146.00 201.00,150.90 201.00,148.98ZM204.00,161.76L202.86,170.00 202.69,175.00 203.00,176.04 209.00,175.12 211.26,173.00 206.00,162.74 205.00,161.77ZM207.00,138.71L206.32,139.00 206.68,141.00 205.58,145.00 205.30,149.00 206.00,151.77 209.00,157.21 210.00,157.68 212.00,157.47 214.00,156.60 214.72,157.00 214.25,158.00 215.00,158.23 217.67,158.00 220.00,157.14 219.00,156.01 218.00,156.10 217.00,156.81 216.66,156.00 217.00,155.66 218.00,155.90 219.24,154.00 218.47,151.00 218.00,142.93 217.03,139.00 216.00,138.54ZM229.00,273.89L226.00,275.93 220.00,281.47 217.60,283.00 214.00,286.97 214.00,288.14 216.00,288.08 220.39,285.00 228.00,277.04 230.34,274.00ZM233.00,270.62L232.23,271.00 233.00,271.15ZM259.00,223.00L256.01,225.00 256.19,226.00 255.03,227.00 254.00,225.96 249.00,229.51 246.00,230.86 244.91,232.00 251.00,234.62 251.63,236.00 252.36,236.00 254.00,234.18 258.08,232.00 261.14,229.00 261.36,224.00 260.40,223.00ZM301.00,219.91L300.52,220.00 301.00,220.20ZM118.00,223.98L117.00,224.75 115.68,225.00 115.00,225.64 112.86,226.00 112.00,226.69 104.00,228.84 103.77,230.00 107.00,230.56 109.00,229.26 120.00,229.27 126.00,230.41 127.00,231.03 130.00,231.36 130.26,231.00 127.00,227.77 123.00,224.95 121.00,223.84ZM151.00,280.89L149.00,281.80 149.00,282.27 152.75,285.00 155.00,286.27 156.00,286.27 156.00,284.74ZM163.00,276.92L161.67,281.00 160.91,282.00 160.63,284.00 160.96,285.00 163.00,286.33 167.00,290.04 169.00,291.36 169.87,291.00 167.26,286.00 166.00,282.41 164.21,280.00 164.00,278.53ZM163.00,256.97L163.00,257.05ZM180.00,335.90L180.00,336.36ZM185.00,321.62L184.69,322.00 187.00,325.18 188.00,325.43 189.00,324.70 189.25,323.00 188.36,322.00ZM194.00,275.78L194.00,277.34 195.00,279.66 197.00,282.06 198.03,281.00 199.10,277.00 198.00,275.88 196.00,275.13ZM211.00,294.94L210.00,295.44 207.00,298.52 205.00,299.73 204.00,301.44 201.00,303.32 199.00,306.85 197.70,311.00 198.00,311.19 205.37,302.00 211.03,296.00ZM211.00,195.98L210.00,196.58 206.79,197.00 209.25,198.00 212.00,198.37 212.91,199.00 216.00,199.41 218.13,197.00 217.00,195.84ZM210.00,165.47L210.00,166.03ZM211.00,166.60L211.00,167.60ZM217.00,159.91L215.00,160.71 212.00,160.85 211.84,162.00 214.96,167.00 219.00,172.19 223.00,171.13 223.04,170.00 221.39,167.00 220.39,162.00 220.99,160.00ZM218.00,300.87L213.84,306.00 213.65,307.00 214.08,307.00 219.00,302.27 219.00,300.81ZM224.00,293.89L222.00,295.81 221.00,297.43 221.17,299.00 222.00,299.16 227.19,294.00 227.00,293.25ZM259.00,235.94L253.00,239.82 250.00,242.59 248.88,243.00 243.99,247.00 242.00,249.38 239.98,251.00 236.95,257.00 237.00,262.30 238.00,263.01 240.56,261.00 248.00,253.48 255.23,245.00 256.31,243.00 261.13,237.00 261.00,235.25ZM106.00,231.82L104.00,232.59 104.00,234.03 105.00,234.19 107.00,233.33 109.00,233.20 126.00,233.31 127.27,233.00 119.00,231.77 109.00,231.76 108.00,231.38ZM129.00,233.79L128.32,234.00 130.46,234.00ZM156.00,290.85L160.94,296.00 171.00,304.21 174.93,308.00 177.00,309.37 177.49,309.00 177.00,307.00 173.66,301.00 171.19,299.00 170.00,298.72 159.25,292.00 157.00,290.84ZM164.00,291.38L163.64,292.00 165.00,292.43 165.11,292.00ZM166.00,292.82L165.43,293.00 166.00,293.17ZM204.00,313.40L203.38,314.00 204.00,314.42ZM206.00,310.97L204.40,313.00 205.00,313.26 206.00,312.19ZM207.00,309.91L207.00,310.37ZM208.00,308.96L208.00,309.07ZM217.00,209.97L214.87,211.00 213.87,215.00 213.84,217.00 214.33,218.00 217.00,218.18 218.14,217.00 218.31,213.00 218.90,211.00 218.45,210.00ZM218.00,203.23L217.61,204.00 218.00,204.26 220.00,204.34 220.00,203.83ZM212.00,168.17L212.00,169.41 212.31,169.00ZM213.00,169.99L213.00,170.07ZM214.00,171.76L214.00,172.15ZM220.00,198.64L219.00,200.18 220.30,201.00 221.42,201.00 222.22,200.00 222.07,199.00 221.00,198.10ZM223.00,194.86L222.01,196.00 223.00,196.83 224.00,196.87 224.00,195.01ZM239.00,276.85L227.94,289.00 227.17,290.00 228.00,290.77 230.00,290.46 232.87,288.00 241.00,279.19 241.09,278.00 239.90,277.00ZM245.00,270.91L241.95,274.00 243.00,275.60 244.00,275.26 247.37,271.00ZM107.00,235.90L106.00,236.32 106.00,237.17 114.00,243.31 122.00,251.02 125.00,251.32 126.30,252.00 129.00,252.36 130.00,253.10 132.00,253.37 137.00,256.22 138.86,258.00 141.00,259.13 143.68,259.00 149.29,256.00 150.18,255.00 150.01,254.00 147.11,250.00 144.30,247.00 144.04,246.00 140.00,240.86 137.00,237.96 135.00,237.69 133.70,237.00 125.00,235.85 114.00,235.55ZM219.00,245.68L218.00,246.85 217.69,249.00 217.00,250.01 216.00,256.29 217.00,255.39 218.14,253.00 219.08,249.00ZM112.00,250.69L111.30,251.00 112.00,251.33ZM117.00,250.96L117.00,251.04ZM120.00,254.30L120.00,255.45 122.50,258.00 123.00,259.15 130.80,267.00 132.01,268.00 133.00,268.16 134.00,267.26 134.00,265.91 121.59,255.00ZM127.00,254.80L126.57,255.00 136.00,263.62 136.37,262.00 137.47,261.00 137.43,260.00 135.00,257.94 131.46,256.00 128.87,255.00ZM142.00,263.95L139.97,265.00 139.00,266.24 146.67,273.00 148.00,273.33 149.00,271.70 150.18,268.00 149.26,267.00 146.00,265.62 143.77,264.00ZM149.00,260.84L145.81,262.00 146.75,263.00 151.00,265.07 152.00,260.94 151.00,260.61ZM130.00,276.85L128.85,278.00 132.00,281.13 135.00,283.17 137.00,283.07 133.99,280.00ZM136.00,268.60L135.00,269.30 135.00,270.54 142.23,277.00 144.00,278.20 145.29,278.00 146.07,277.00 145.37,276.00 139.99,271.00 137.00,268.75ZM137.00,263.68L136.42,264.00 137.00,264.12ZM147.00,278.61L146.71,279.00 147.00,280.18 148.28,280.00 149.12,279.00ZM140.00,286.60L140.00,287.21 140.54,287.00ZM141.00,287.76L141.28,288.00ZM130.99,136.00L131.01,136.00ZM132.31,151.00L133.00,150.23 134.30,151.00 134.48,152.00 134.00,152.44ZM267.32,262.00L268.00,261.32 269.00,261.68 269.74,263.00 269.00,263.91 268.00,264.13 267.18,263.00Z"/>
</svg>
