<svg width="818" height="1098" viewBox="0 0 818 1098" fill="none" xmlns="http://www.w3.org/2000/svg">
<rect width="818" height="1098" fill="#F2F2F2"/>
<g id="body/Tee 1">
<path id="&#226;&#156;&#139; Skin" fill-rule="evenodd" clip-rule="evenodd" d="M774.281 918.022C770.25 895.259 766.555 872.434 763.197 849.56C761.603 838.7 760.048 827.83 758.65 816.942C757.671 809.314 756.18 800.591 761.37 794.942C768.673 786.99 775.307 780.184 776.201 768.793C777.042 758.076 773.418 746.393 771.152 735.99C766.4 714.174 760.484 692.628 753.947 671.286C747.306 649.603 740.024 628.124 732.637 606.686C725.731 586.642 719.092 566.417 710.097 547.186C693.026 510.691 664.146 483.664 628.454 465.618C619.577 461.13 601.471 445.108 592.197 441.521C583.671 438.223 583.702 447.854 575.311 444.226C568.603 441.326 562.357 437.459 558.601 430.982C554.523 423.949 544.296 414.113 542.739 405.927C539.44 388.576 543.014 373.807 530.63 360.748C519.636 349.151 504.859 341.206 489.569 336.941C455.933 327.56 411.075 334.119 390.781 365.374C381.088 380.3 377.701 398.342 364.622 410.523C353.201 421.159 355.757 428.431 340.965 433.913C340.127 434.224 317.419 429.353 316.581 429.665C300.399 426.202 284.933 435.895 270.087 441.521C247.954 449.905 226.882 460.819 207.085 473.79C167.166 499.945 132.976 533.908 104.789 572.341C76.3689 611.091 54.3179 654.523 38.6169 699.917C34.8039 710.943 31.3789 722.103 28.3579 733.372C26.6669 739.679 24.8599 746.221 26.9189 752.677C28.6029 757.96 32.3489 761.893 36.7479 765.062C42.7109 769.359 54.6719 772.152 54.4389 780.794C54.2609 787.364 52.0319 794.279 50.9439 800.772C49.6489 808.504 48.5849 816.282 47.5209 824.048C42.6809 859.398 38.9139 894.947 37.2479 930.597C35.6079 965.699 34.2469 1001.52 36.6819 1036.61C36.8429 1038.92 37.5329 1041.05 38.6459 1042.84C37.6069 1043.24 37.5269 1045.18 38.8199 1045.45C39.7259 1045.64 40.6299 1045.84 41.5359 1046.03C43.4179 1047.45 45.7649 1048.32 48.4659 1048.41C50.2969 1048.47 52.1269 1048.55 53.9559 1048.64C73.2569 1052.68 92.5549 1056.49 112.108 1059.38C135.876 1062.88 159.714 1065.74 183.626 1068.07C232.761 1072.85 281.509 1071.26 330.709 1068.69C379.833 1066.11 428.928 1065.51 478.103 1066.79C527.321 1068.07 576.521 1070.21 625.75 1071.09C680.749 1072.07 735.664 1070.57 790.504 1066.19C798.023 1065.6 802.675 1059.61 801.192 1052.15C792.307 1007.4 782.238 962.958 774.281 918.022Z" fill="#D08B5B"/>
<path id="&#240;&#159;&#145;&#149; Top" fill-rule="evenodd" clip-rule="evenodd" d="M270.087 441.521L271.161 441.107C285.679 435.436 300.79 426.285 316.582 429.664C317.14 429.457 327.416 431.552 334.454 432.88L327.774 439.853L315.984 442.121C356.657 509.249 404.762 542.813 460.298 542.813C515.835 542.813 557.976 509.249 586.723 442.121L590.646 441.036C591.13 441.148 591.646 441.307 592.198 441.521C601.472 445.108 619.577 461.129 628.454 465.617C664.146 483.664 693.026 510.69 710.097 547.186C718.792 565.776 725.286 585.294 731.947 604.68L732.637 606.685C740.024 628.123 747.306 649.602 753.947 671.286C760.2 691.7 765.885 712.301 770.526 733.145L771.152 735.989C773.418 746.393 777.042 758.075 776.201 768.793C775.883 772.851 774.836 776.327 773.289 779.48L692.843 808.427L731.169 1069.82C696.062 1071.33 660.923 1071.72 625.75 1071.09C576.521 1070.21 527.321 1068.07 478.103 1066.79C430.418 1065.55 382.809 1066.08 335.175 1068.46L323.078 1069.08C276.465 1071.41 230.22 1072.6 183.626 1068.07L180.451 1067.76V1067.76L180.451 1029.52L196.818 816.609L113.873 800.996L32.4512 761.45C29.9911 758.991 28.017 756.121 26.9192 752.677C25.0121 746.697 26.4215 740.644 27.9834 734.772L28.3582 733.372C31.3792 722.103 34.8042 710.943 38.6172 699.917C54.3182 654.523 76.3692 611.09 104.789 572.341C132.976 533.908 167.166 499.945 207.085 473.789C226.882 460.819 247.954 449.905 270.087 441.521Z" fill="#EC7495"/>
<path id="&#240;&#159;&#150;&#141; Ink" fill-rule="evenodd" clip-rule="evenodd" d="M301.235 428.564C306.321 428.343 311.507 429.166 316.581 429.665C317.023 429.708 317.191 430.39 316.693 430.494C307.613 432.391 298.631 434.986 289.713 437.622L285.894 438.752C275.837 441.727 266.075 444.796 256.339 448.764C236.935 456.672 218.506 467.346 201.545 479.609C136.233 526.83 88.9633 598.324 59.1333 672.345C51.0323 692.447 44.1683 713.049 38.6083 733.998C37.2563 739.095 35.9843 744.212 34.7783 749.345C34.4243 750.85 32.8813 754.704 33.7273 756.244C34.4753 757.605 37.3833 758.446 38.7343 759.154L43.2954 761.519C52.1923 766.104 67.0121 773.641 68.4983 774.376L70.8161 775.517C108.727 794.102 149.234 809.862 191.895 810.953L192.229 807.31V807.31C194.131 787.169 196.627 766.921 202.075 747.399C202.368 746.35 203.703 746.704 203.825 747.636C206.86 770.747 205.89 794.038 204.831 817.256C202.956 858.378 200.466 899.477 198.253 940.583C197.145 961.146 195.713 981.695 194.42 1002.25C193.125 1022.84 192.706 1043.93 189.749 1064.35C189.09 1068.9 183.758 1071.38 179.72 1070.9C175.252 1070.37 171.815 1066.43 171.794 1061.92C171.74 1050.02 173.235 1037.98 174.066 1026.12C174.855 1014.84 175.702 1003.57 176.57 992.301C179.742 951.17 183.391 910.087 186.766 868.974C187.962 854.392 189.254 839.823 190.584 825.255C145.391 823.798 103.17 807.059 62.8923 787.501C62.3093 800.738 60.9013 813.951 59.5383 827.133C55.7333 863.919 52.3783 900.691 49.8673 937.591C48.5993 956.228 47.6763 974.888 46.8723 993.55C46.4773 1002.72 46.1553 1011.9 45.9083 1021.07C45.8256 1024.13 45.7509 1027.19 45.6849 1030.25L45.5475 1037.26C45.4351 1041.7 44.9836 1045.81 41.2473 1049.04C37.4523 1052.33 32.3263 1052.5 28.5703 1049.04C23.5423 1044.41 24.4313 1038.11 24.5803 1031.89C24.7043 1026.64 24.8533 1021.4 25.0263 1016.16C25.3733 1005.67 25.8163 995.186 26.3553 984.707C28.2414 948.071 32.0099 911.581 36.9349 875.239L38.8575 861.21C42.4478 835.129 46.3894 808.456 54.4153 783.333C51.2903 781.779 48.1743 780.214 45.0703 778.642C39.5643 775.854 33.8713 773.238 28.5193 770.161C24.2733 767.72 20.6113 764.372 19.4293 759.431C18.111 753.926 20.1268 747.904 21.466 742.535L21.5823 742.063C22.8953 736.655 24.3093 731.271 25.8013 725.91C31.8513 704.171 39.3323 682.856 48.0873 662.061C65.6173 620.429 88.2443 580.878 115.883 545.117C140.762 512.927 170.152 483.735 204.598 461.841C221.438 451.137 239.384 442.348 258.363 436.134C267.234 433.23 276.886 430.704 286.174 429.664C291.184 429.104 296.201 428.783 301.235 428.564ZM391.349 362.594C397.393 356.104 409.401 362.82 406.499 371.414C399.673 391.633 388.803 410.076 371.839 423.362C355.893 435.852 336.878 443.963 316.4 442.232C316.242 442.218 316.105 442.178 315.984 442.121L317.749 444.515C331.603 463.256 346.219 481.738 363.836 497.056C399.729 528.267 448.599 545.101 495.789 533.126C532.917 523.705 565.627 494.346 575.247 456.93C573.868 457.548 572.229 457.759 570.43 457.368C562.733 455.697 555.113 447.602 550.149 441.798C544.779 435.519 540.585 428.739 537.511 421.075C531.885 407.049 530.081 388.99 537.763 375.403C538.711 373.728 540.897 374.667 541.083 376.302L541.375 378.854C542.856 391.588 544.701 403.905 550.705 415.513C553.643 421.193 557.165 426.737 561.452 431.494C563.746 434.039 566.233 436.471 568.918 438.605C571.534 440.684 574.701 442.187 577.046 444.573L577.476 445.031L577.488 444.949C578.081 439.908 581.616 437.687 585.075 437.826C588.422 437.961 592.354 439.434 593.877 440.14L594.021 440.208C617.373 451.418 638.88 466.029 659.12 482.239C700.976 515.763 732.337 559.588 747.532 611.196C754.99 636.525 759.269 662.624 763.786 688.601L766.568 704.517C770.784 728.499 775.494 752.953 785.012 775.261C787.474 781.032 785.576 786.444 779.539 788.713C772.001 791.547 764.435 794.291 756.857 797.001C760.578 812.964 762.847 829.48 765.635 845.522C771.561 879.621 778.822 913.502 785.048 947.556C788.231 964.968 791.103 982.438 794.283 999.852C795.814 1008.24 797.412 1016.61 798.966 1024.99C799.803 1029.51 800.562 1034.05 801.361 1038.57L801.5 1039.33C801.958 1041.71 802.533 1044.18 801.876 1046.57C801.127 1049.3 799 1051.22 797.101 1053.18C795.538 1054.79 793.279 1054.8 791.364 1053.92L790.734 1053.63C787.314 1052.03 784.634 1050.43 783.421 1046.57C782.653 1044.13 782.376 1041.38 781.874 1038.86C780.911 1034.04 779.998 1029.2 779.136 1024.36C777.412 1014.67 775.728 1004.97 774.084 995.258L772.548 986.168C767.278 954.839 762.273 923.319 759.743 891.659C758.62 877.614 757.431 863.58 756.23 849.544L755.329 839.016C754.189 825.691 752.796 812.029 752.599 798.524L748.067 800.133V800.133L725.957 807.949V807.949C720.475 809.886 713.495 813.856 707.595 813.134C704.707 812.78 702.505 811.871 700.805 810.219C702.841 838.952 705.597 867.635 709.27 896.172C712.612 922.138 716.317 948.069 720.693 973.882C722.86 986.664 725.087 999.434 727.506 1012.17C728.715 1018.54 729.963 1024.9 731.249 1031.25C731.89 1034.42 732.653 1037.6 733.153 1040.79C733.725 1044.45 732.717 1046.7 730.672 1049.72C728.993 1052.19 725.634 1053.46 722.911 1051.75C719.305 1049.49 717.424 1047.53 716.363 1043.41C715.399 1039.66 714.813 1035.76 714.067 1031.97C712.69 1024.97 711.359 1017.96 710.074 1010.95C707.387 996.273 704.91 981.565 702.698 966.813C694.903 914.844 689.957 862.44 687.459 809.951C686.226 784.054 685.845 758.134 686.064 732.21C686.176 718.922 686.61 705.596 687.55 692.341C688.502 678.924 690.482 665.775 692.25 652.487C692.312 652.019 692.972 651.992 693 652.487C693.837 667.385 695.149 682.266 695.792 697.203C696.406 711.456 696.675 725.731 697.163 739.989C697.804 758.731 698.693 777.484 699.87 796.224C702.001 793.893 705.213 792.549 708.427 793.074C713.083 792.097 718.095 789.654 722.534 788.171L739.268 782.581V782.581C748.065 779.643 756.862 776.725 765.69 773.895C757.797 747.342 752.39 720.393 747.773 693.051L745.714 680.754C741.639 656.55 737.244 632.335 729.862 608.896C722.101 584.254 710.487 561.344 695.08 540.597C679.893 520.15 661.416 502.146 642.392 485.306C626.105 470.89 608.682 457.874 592.07 443.854C592.244 444.783 592.281 445.806 592.128 446.93C588.596 472.78 575.111 496.853 556.318 514.758C518.563 550.729 462.676 558.192 414.354 541.324C367.611 525.008 326.284 486.366 311.683 438.549C311.433 437.731 312.529 437.406 312.969 438.007C313.779 439.117 314.593 440.227 315.408 441.337C315.353 440.896 315.582 440.416 316.126 440.206C333.162 433.628 349.891 424.299 362.661 411.102C368.885 404.669 374.317 397.381 378.605 389.521C380.659 385.756 382.504 381.857 383.976 377.828L384.35 376.786C386.134 371.739 387.625 366.592 391.349 362.594Z" fill="black"/>
</g>
<g id="face/Cyclops">
<path id="eye" fill-rule="evenodd" clip-rule="evenodd" d="M473 171C501.167 171 524 147.719 524 119C524 90.2812 501.167 67 473 67C444.833 67 422 90.2812 422 119C422 147.719 444.833 171 473 171Z" fill="white"/>
<path id="&#240;&#159;&#150;&#141; Ink_2" fill-rule="evenodd" clip-rule="evenodd" d="M505.139 187.83C505.381 187.072 506.434 187.074 506.676 187.83C508.874 194.681 510.165 201.39 513.447 207.832C514.258 208.667 514.839 209.718 515.15 210.853C516.683 213.4 518.391 215.818 520.302 218.107C522.706 220.987 524.455 223.692 523.181 227.623C522.553 229.56 520.931 230.799 518.887 230.892C513.275 231.146 510.078 225.794 508.093 220.214C494.205 224.826 478.913 227.437 464.357 226.29C452.525 225.356 439.636 222.392 429.042 216.35C429.105 218.632 429.192 220.916 429.272 223.201C429.42 227.427 430.557 232.052 430.117 236.202C429.681 240.32 427.343 243.506 423.106 244.144C419.459 244.692 414.945 242.257 414.234 238.351C413.41 233.817 414.936 230.65 416.191 226.37C417.3 222.588 418.17 218.724 419.126 214.901C420.09 211.041 420.879 207.148 421.594 203.237C422.118 200.374 421.74 197.148 422.754 194.451C422.834 194.24 423.04 194.089 423.273 194.156C428.668 195.706 428.974 204.392 428.952 209.053L428.951 209.283C428.943 210.233 428.952 211.183 428.962 212.132L431.023 212.583C442.34 215.032 453.332 216.892 465.231 216.217C479.189 215.426 491.463 210.323 504.709 206.826C503.609 200.535 503.271 193.672 505.139 187.83ZM458.461 63.8607C464.655 61.7397 471.351 60.7377 477.865 61.0587C491.827 61.7487 505.128 68.1167 514.282 78.7277C522.925 88.7447 527.622 101.308 527.561 114.562C527.495 128.177 523.919 143.509 517.185 155.427C503.036 180.468 469.988 180.642 446.238 170.658C420.893 160.004 410.581 133.135 416.686 107.158C421.276 87.6217 436.933 64.1807 458.461 63.8607ZM499.753 83.2007C492.275 77.1977 482.858 74.5007 473.343 75.1827C468.616 75.5217 463.813 76.7627 459.522 78.7797C457.241 79.8517 455.202 81.3487 452.956 82.4647C450.954 83.4585 448.786 84.0383 446.72 84.8747L445.95 85.2017C442.557 86.7177 439.14 84.5487 438.97 81.3877C431.589 91.7437 428.088 105.787 428.145 118.245C428.187 127.419 430.372 136.949 435.638 144.587C441.491 153.076 451.202 157.554 460.942 159.932C470.27 162.209 480.441 162.999 489.791 160.412C499.496 157.728 505.765 150.363 509.333 141.182C517.073 121.267 517.712 97.6177 499.753 83.2007ZM466.427 107.896C470.662 102.115 478.259 101.808 482.441 107.896C485.073 111.728 484.686 115.42 484.477 119.83L484.437 120.821C484.313 124.312 484.329 127.986 483.022 131.212C481.343 135.353 478.08 138.006 473.458 137.457C470.737 137.132 468.458 135.508 467.136 133.268L467.09 133.294V133.294C465.236 129.592 464.758 125.837 464.445 121.797L464.229 118.834C463.967 114.939 463.953 111.273 466.427 107.896Z" fill="black"/>
</g>
<g id="head/Bear">
<path id="&#226;&#156;&#139; Skin_2" fill-rule="evenodd" clip-rule="evenodd" d="M575.332 214.382C593.459 202.756 618.193 173.091 604.136 150.596C598.427 141.799 590.642 138.492 582.096 138.227C580.059 135.671 576.674 134.922 573.515 134.904L573.533 134.769C561.985 134.981 550.636 139.026 541.348 145.78C535.36 140.519 527.923 137.527 520.719 134.292C523.74 119.097 528.35 104.275 533.585 89.7094C536.41 81.3224 527.461 72.4874 519.023 75.0214C521.099 65.9294 516.329 55.3694 505.939 55.4864C500.384 55.4864 494.098 58.4644 488.726 59.8064C484.747 60.8004 480.828 61.8204 476.988 63.1174C476.97 63.0134 476.96 62.9084 476.949 62.8024C487.013 55.7564 486.662 39.5344 471.873 41.1074C465.564 41.6644 459.15 45.9584 453.316 48.5804C443.699 49.1594 434.463 52.2154 425.115 54.4084C399.536 60.7534 372.17 67.1294 351.097 83.2294C314.598 97.2954 269.202 119.04 264.68 162.023C200.395 137.151 151.832 216.573 210.13 247.826C221.57 253.159 234.794 255.92 247.309 253.355C244.352 264.291 241.526 275.264 238.881 286.281C216.618 337.432 198.618 391.489 205.093 447.631C205.188 457.816 218.268 463.691 225.498 456.083C231.479 448.867 238.736 457.302 236.786 464.269C234.938 472.008 240.387 479.113 248.313 479.4C257.798 479.897 265.332 473.536 272.044 467.661C271.915 467.788 272.221 467.595 272.667 467.294C289.229 506.357 304.747 475.984 325.16 493.56C329.93 497.966 333.277 503.186 339.388 506.052C353.72 513.313 365.036 500.37 378.726 498.876C391.381 497.944 403.894 502.325 416.029 505.273C430.2 508.714 444.488 510.516 459.045 508.902C477.658 506.836 514.794 498.426 525.785 491.501C539.251 500.539 553.107 489.819 560.509 477.476C565.686 482.46 575.481 483.224 579.641 475.538C583.779 466.967 591.513 453.867 600.407 455.808C601.201 456.051 601.666 456.203 602.151 456.555C610.464 463.622 621.196 458.257 622.412 447.986C630.292 381.439 614.218 314.681 592.845 252.055C588.179 238.959 584.308 225.346 575.332 214.382Z" fill="#D08B5B"/>
<path id="&#240;&#159;&#150;&#141; Ink_3" fill-rule="evenodd" clip-rule="evenodd" d="M567.984 212.542C567.648 211.62 569.06 211.09 569.526 211.892C584.801 238.15 597.011 266.042 607.454 294.534C616.697 319.754 624.894 345.461 630.735 371.695L631.132 373.501C636.626 398.817 639.335 425.598 632.129 450.855L631.781 452.056C630.122 457.674 627.93 463.38 622.805 466.716C618.501 469.519 613.631 469.869 608.675 469.09C604.499 468.433 600.521 466.613 596.336 466.109C593.181 465.73 592.358 467.244 591.438 469.794L590.674 471.952C587.395 481.099 583.39 489.612 572.692 491.539C566.931 492.578 560.672 491.5 555.681 488.472C555.623 488.666 555.565 488.859 555.517 489.045L555.281 489.946C554.237 493.857 552.894 497.833 550.127 500.873C546.263 505.115 540.721 506.619 535.136 505.493C532.598 504.982 530.214 503.829 527.805 502.868C527.216 506.416 523.141 509.307 519.413 508.433C517.396 507.961 515.841 507.043 514.683 505.861C508.924 510.304 501.156 512.577 494.428 514.299C484.685 516.792 474.317 517.816 464.27 517.516C454.072 517.211 443.697 515.248 434.105 511.793L432.606 511.247C424.331 508.194 415.62 504.331 408.916 498.623C407.584 497.968 408.363 495.549 409.951 496.062C419.057 499.006 427.551 502.465 437.108 503.881C446.126 505.217 455.183 505.438 464.27 504.888C473.484 504.331 482.424 502.451 491.217 499.671C498.869 497.252 506.406 492.884 514.532 492.313C514.956 491.726 515.416 491.159 515.947 490.642C522.976 483.815 530.097 487.23 538.007 489.716C538.267 489.799 538.34 489.937 538.341 490.072L538.438 489.935V489.935L538.5 489.851L538.454 489.908C538.125 490.28 538.783 488.9 538.9 488.618L538.912 488.588C539.821 486.107 540.173 483.441 540.942 480.918C542.776 474.892 546.205 469.379 552.773 467.937C556.015 467.224 560.433 468.31 561.934 471.665C563.17 474.424 565.194 475.822 568.309 475.749C571.562 475.674 572.759 473.777 573.892 470.919C575.735 466.269 576.73 461.431 579.758 457.329C583.163 452.715 588.252 450.021 594.002 449.8C598.433 449.631 602.773 450.923 606.987 452.119L607.375 452.236C609.299 452.839 612.738 454.199 614.24 453.197C616.493 451.694 617.657 442.927 618.309 439.649L618.351 439.443C619.512 433.856 620.186 428.226 620.46 422.527C621.603 398.691 616.689 374.978 611.254 351.907C600.044 304.329 584.7 258.431 567.984 212.542ZM248.575 270.715C248.878 270.261 249.54 270.654 249.303 271.141C248.204 273.402 247.803 275.777 247.061 278.132C246.24 280.739 244.845 283.267 243.81 285.797C242.134 289.894 240.511 294.015 238.874 298.128C235.583 306.398 232.523 314.793 229.623 323.209C223.8 340.116 219.041 357.497 215.56 375.037C212.139 392.27 209.275 410.289 209.384 427.904C209.433 435.915 210.308 444.164 213.487 451.603C213.986 452.77 214.571 453.914 215.191 455.025L215.567 455.688C215.62 455.782 215.676 455.875 215.733 455.967L216.076 456.517C217.08 455.045 219.973 453.096 221.167 452.064L221.333 451.916L226.935 446.734C229.374 444.476 232.893 443.933 235.842 445.584C244.806 450.6 244.516 459.916 246.435 468.709L246.519 469.091C247.354 472.786 248.798 475.857 253.224 475.132C257.842 474.375 260.51 469.681 262.018 465.644L262.212 465.11C264.877 457.595 274.46 457.895 277.219 465.11L278.254 467.842C280.393 473.443 283.308 480.2 288.83 482.417C293.473 484.281 298.793 481.493 303.016 479.763C305.338 478.812 308.048 480.796 308.667 482.972C308.835 483.564 308.948 484.13 309.036 484.687C313.451 484.259 317.677 485.313 322.019 487.318C327.703 489.94 334.849 495.601 335.917 502.162C337.182 509.919 328.198 513.581 323.562 507.371C320.643 503.46 319.586 498.711 316.096 494.994C314.046 492.812 311.497 490.917 308.822 489.306C306.431 497.757 293.011 500.193 285.012 497.691C277.332 495.291 272.241 489.631 268.439 483.011C261.331 489.96 251.468 493.323 241.584 487.261C235.861 483.751 233.193 477.612 232.159 471.235C231.848 469.318 231.83 466.167 231.28 463.399L230.747 463.942C225.92 468.824 220.307 473.415 213.98 472.36C205.687 470.978 201.75 461.748 199.164 454.718C193.786 440.107 194.777 423.859 196.599 408.689C198.595 392.08 201.935 375.628 206.355 359.497C210.666 343.762 216.247 328.492 222.813 313.561C226.16 305.952 230.02 298.53 234.169 291.326C236.253 287.71 238.522 284.193 240.802 280.698C243.155 277.09 246.214 274.248 248.575 270.715ZM198.893 167.898C211.071 156.597 227.353 151.445 243.773 153.769C251.523 154.864 258.903 157.666 265.446 161.989C272.083 166.374 276.383 171.802 280.355 178.591C280.632 179.064 280.003 179.513 279.619 179.158C269.031 169.402 252.998 164.195 238.749 164.745C213.356 165.724 192.304 188.19 193.882 213.795C194.659 226.405 201.747 239.141 212.707 245.63C224.322 252.507 237.543 250.224 249.99 247.196C254.485 246.103 256.749 251.154 254.186 254.404C241.562 270.42 215.604 266.232 201.03 255.216C172.868 233.931 173.831 191.155 198.893 167.898ZM239.785 193.117L240.865 192.931C249.95 191.431 269.292 189.701 272.138 200.787C273.588 206.433 267.98 209.473 263.072 209.223C259.025 209.017 255.103 207.75 251.108 206.89C249.961 210.855 249.571 214.996 249.012 219.078C248.524 222.652 242.775 221.682 242.843 218.244C242.939 213.463 245.16 209.398 248.656 206.431C247.84 206.305 247.02 206.199 246.192 206.143C236.26 205.476 226.447 207.32 217.169 210.726L218.15 211.277V211.277C218.618 211.439 218.418 212.064 217.95 212L213.335 212.232V212.232C211.404 212.684 210.264 210.478 211.481 209.046C218.631 200.625 228.946 195.05 239.785 193.117ZM571.046 133.768C584.918 132.106 598.698 137.218 606.144 149.422C613.053 160.743 613.652 175.076 608.752 187.242C605.967 194.154 601.761 200.353 596.555 205.683C593.981 208.318 591.031 211.037 587.769 212.78C583.97 214.81 581.142 214.633 577.134 213.888C574.553 213.408 572.772 210.095 573.597 207.66L574.212 205.814C574.882 203.831 575.51 202.362 577.345 200.492C578.947 198.861 580.864 197.54 582.625 196.086C586.412 192.957 589.931 189.465 592.563 185.292C597.374 177.661 599.042 168.89 596.326 160.187C593.411 150.841 585.693 144.788 576.022 143.66C570.531 143.021 564.959 143.599 559.543 144.557L556.241 145.154C551.634 146.007 547.877 146.997 544.699 151.222C544.431 151.577 543.912 151.545 543.757 151.099C542.164 146.51 547.029 142.415 550.474 140.245C556.459 136.48 564.093 134.601 571.046 133.768ZM510.59 128.181C509.911 127.316 510.494 125.562 511.82 126.066C527.272 131.933 540.286 146.218 549.194 159.714C551.89 163.797 554.307 168.037 556.49 172.396C559.606 168.61 564.26 165.871 568.614 164.009L569.096 163.806C574.118 161.72 584.979 158.15 588.055 164.834C589.044 166.985 588.648 169.192 586.914 170.859C584.233 173.435 579.951 172.459 576.606 172.429C569.846 172.371 564.478 174.507 558.496 176.581C559.585 178.955 560.615 181.358 561.574 183.794C562.881 187.107 563.845 190.598 565.43 193.793C566.935 196.83 569.299 199.543 571.317 202.236C574.042 205.87 570.399 212.012 565.958 211.576C556.766 210.672 553.103 203.076 550.572 195.025L549.192 190.621C547.124 184.044 544.995 177.598 541.89 171.341C537.896 163.297 533.131 155.439 527.65 148.318C522.275 141.336 516.006 135.103 510.59 128.181ZM486.664 33.3784C492.374 31.2504 497.175 38.5794 494.332 43.3524C491.833 47.5444 490.347 51.8734 489.765 56.4154L514.939 50.4174V50.4174C519.944 49.2254 524.679 53.6484 523.296 58.7754L519.411 73.1804V73.1804C524.431 71.5014 529.682 70.5064 535.079 70.1554C539.704 69.8554 542.258 74.6294 541.498 78.5814C539.912 86.815 537.705 94.8978 534.766 102.749L532.618 108.4C530.093 114.98 527.145 121.62 521.055 125.327C518.113 127.118 514.298 124.802 514.284 121.443C514.249 113.31 519.269 106.361 522.059 98.8624C523.753 94.3104 525.19 89.6794 526.41 84.9894C521.685 86.3256 517.238 88.4445 513.039 91.2391L512.411 91.6634C507.447 95.0669 501.21 89.5363 502.445 84.2279L502.492 84.0384L507.236 66.2504L484.671 71.6954V71.6954C480.02 72.8184 476.449 69.5684 476.008 65.0964C475.54 60.3424 475.841 55.6114 476.83 51.0294C461.916 55.7256 446.696 59.3796 431.43 62.7931L429.139 63.3034C395.634 70.7434 361.399 77.3124 330.66 93.2364C317.085 100.267 304.638 108.591 293.317 118.886C287.723 123.973 282.606 129.571 278.126 135.664C276.025 138.523 274.06 141.481 272.259 144.538L270.817 147.026C270.124 148.227 269.451 149.464 269.038 150.757L268.835 151.405C268.501 152.499 268.141 153.937 268.444 154.896C268.881 156.278 271.383 158.55 273.151 157.928C273.392 157.843 273.514 158.157 273.378 158.32C271.82 160.196 269.626 160.534 267.394 159.591C263.864 158.098 262.984 154.69 263.374 151.134C264.341 142.333 270.465 132.628 275.307 125.444C295.246 95.8574 328.056 78.1534 361.152 67.0614C402.302 53.2694 445.921 48.5604 486.664 33.3784Z" fill="black"/>
</g>
<g id="face/Cyclops_2">
<path id="eye_2" fill-rule="evenodd" clip-rule="evenodd" d="M435 317C463.167 317 486 293.719 486 265C486 236.281 463.167 213 435 213C406.833 213 384 236.281 384 265C384 293.719 406.833 317 435 317Z" fill="white"/>
<path id="&#240;&#159;&#150;&#141; Ink_4" fill-rule="evenodd" clip-rule="evenodd" d="M467.139 333.83C467.381 333.072 468.434 333.074 468.676 333.83C470.874 340.681 472.165 347.39 475.447 353.832C476.258 354.667 476.839 355.718 477.15 356.853C478.683 359.4 480.391 361.818 482.302 364.107C484.706 366.987 486.455 369.692 485.181 373.623C484.553 375.56 482.931 376.799 480.887 376.892C475.275 377.146 472.078 371.794 470.093 366.214C456.205 370.826 440.913 373.437 426.357 372.29C414.525 371.356 401.636 368.392 391.042 362.35C391.105 364.632 391.192 366.916 391.272 369.201C391.42 373.427 392.557 378.052 392.117 382.202C391.681 386.32 389.343 389.506 385.106 390.144C381.459 390.692 376.945 388.257 376.234 384.351C375.41 379.817 376.936 376.65 378.191 372.37C379.3 368.588 380.17 364.724 381.126 360.901C382.09 357.041 382.879 353.148 383.594 349.237C384.118 346.374 383.74 343.148 384.754 340.451C384.834 340.24 385.04 340.089 385.273 340.156C390.668 341.706 390.974 350.392 390.952 355.053L390.951 355.283C390.943 356.233 390.952 357.183 390.962 358.132L393.023 358.583C404.34 361.032 415.332 362.892 427.231 362.217C441.189 361.426 453.463 356.323 466.709 352.826C465.609 346.535 465.271 339.672 467.139 333.83ZM420.461 209.861C426.655 207.74 433.351 206.738 439.865 207.059C453.827 207.749 467.128 214.117 476.282 224.728C484.925 234.745 489.622 247.308 489.561 260.562C489.495 274.177 485.919 289.509 479.185 301.427C465.036 326.468 431.988 326.642 408.238 316.658C382.893 306.004 372.581 279.135 378.686 253.158C383.276 233.622 398.933 210.181 420.461 209.861ZM461.753 229.201C454.275 223.198 444.858 220.501 435.343 221.183C430.616 221.522 425.813 222.763 421.522 224.78C419.241 225.852 417.202 227.349 414.956 228.465C412.954 229.458 410.786 230.038 408.72 230.875L407.95 231.202C404.557 232.718 401.14 230.549 400.97 227.388C393.589 237.744 390.088 251.787 390.145 264.245C390.187 273.419 392.372 282.949 397.638 290.587C403.491 299.076 413.202 303.554 422.942 305.932C432.27 308.209 442.441 308.999 451.791 306.412C461.496 303.728 467.765 296.363 471.333 287.182C479.073 267.267 479.712 243.618 461.753 229.201ZM428.427 253.896C432.662 248.115 440.259 247.808 444.441 253.896C447.073 257.728 446.686 261.42 446.477 265.83L446.437 266.821C446.313 270.312 446.329 273.986 445.022 277.212C443.343 281.353 440.08 284.006 435.458 283.457C432.737 283.132 430.458 281.508 429.136 279.268L429.09 279.294V279.294C427.236 275.592 426.758 271.837 426.445 267.797L426.229 264.834C425.967 260.939 425.953 257.273 428.427 253.896Z" fill="black"/>
</g>
</svg>
